<svg xmlns="http://www.w3.org/2000/svg" id="Capa_1" height="512" viewBox="0 0 512 512" width="512"><g><g><path d="m176.2 464.46c-4.142 0-7.5 3.357-7.5 7.5v32.54c0 4.143 3.358 7.5 7.5 7.5s7.5-3.357 7.5-7.5v-32.54c0-4.143-3.358-7.5-7.5-7.5z"></path><path d="m215.59 41.95c4.142 0 7.5-3.357 7.5-7.5v-26.95c0-4.143-3.358-7.5-7.5-7.5s-7.5 3.357-7.5 7.5v26.95c0 4.143 3.358 7.5 7.5 7.5z"></path><path d="m334.166 281.335c-.257-.26-.526-.506-.787-.761 6.884-9.57 10.611-21.031 10.611-32.989 0-11.987-3.737-23.465-10.639-33.034 9.843-9.585 16.234-22.706 16.95-37.187 1.247-24.968-14.404-47.961-38.063-55.915-4.981-1.672-8.327-6.462-8.327-11.919v-102.03c0-4.143-3.358-7.5-7.5-7.5s-7.5 3.357-7.5 7.5v102.03c0 11.909 7.456 22.413 18.55 26.139 17.316 5.821 28.772 22.659 27.859 40.95-1.036 20.938-18.261 38.006-39.214 38.856-13.253.573-26.023-5.406-34.151-15.908-1.495-2.022-14.624-19.152-33.531-23.6-4.033-.95-8.07 1.552-9.019 5.583-.948 4.032 1.551 8.07 5.583 9.019 9.068 2.133 16.706 8.845 21.055 13.432-8.006 7.706-18.884 11.936-30.149 11.474-20.953-.851-38.177-17.918-39.213-38.859-.913-18.288 10.543-35.126 27.856-40.946 11.097-3.727 18.553-14.23 18.553-26.14v-40.08c0-4.143-3.358-7.5-7.5-7.5s-7.5 3.357-7.5 7.5v40.08c0 5.457-3.346 10.247-8.33 11.92-23.656 7.953-39.307 30.946-38.061 55.911.716 14.483 7.107 27.604 16.95 37.19-6.902 9.569-10.639 21.047-10.639 33.034 0 11.922 3.703 23.351 10.546 32.903-9.814 9.537-16.095 22.628-16.856 37.161-.399 7.636.719 15.079 3.217 22.013-5.789 6.487-9.135 14.809-9.335 23.542-.243 9.832 3.364 19.16 10.144 26.255 1.918 2.017 2.974 4.805 2.974 7.851v39.65c0 4.143 3.358 7.5 7.5 7.5s7.5-3.357 7.5-7.5v-39.65c0-6.911-2.523-13.371-7.118-18.201-4.016-4.202-6.148-9.719-6.004-15.548.074-3.233.886-6.371 2.324-9.212 1.268 1.674 2.628 3.294 4.097 4.842 9.023 9.506 20.722 15.387 33.486 16.989-.64.955-1.349 1.869-2.142 2.722-4.721 5.078-7.32 11.552-7.32 18.229v107.369c0 4.143 3.358 7.5 7.5 7.5s7.5-3.357 7.5-7.5v-107.37c0-2.875 1.174-5.722 3.308-8.018 2.785-2.998 5.01-6.413 6.643-10.092.909.562 1.77 1.212 2.564 1.959 2.965 2.782 4.736 6.558 4.985 10.627l6.911 113.35c.242 3.979 3.545 7.044 7.479 7.044.154 0 .309-.005.464-.014 4.134-.252 7.282-3.809 7.03-7.942l-6.911-113.353c-.485-7.907-3.928-15.241-9.687-20.645-5.764-5.422-13.292-8.407-21.199-8.407-11.353 0-21.912-4.537-29.731-12.775-7.816-8.235-11.794-19.043-11.199-30.432 1.022-19.506 16.428-36.035 35.878-38.455.952-.124 1.956-.212 3.058-.267 8.712-.426 17.187-3.944 23.866-9.912 4.538-4.062 10.404-6.299 16.518-6.299 6.104 0 11.973 2.238 16.522 6.302 6.656 5.949 15.127 9.466 23.858 9.906l.437.029c20.646 1.192 37.561 18.304 38.51 38.957.84 18.225-10.617 35.005-27.86 40.808-11.1 3.736-18.557 14.244-18.557 26.148v32.729c0 4.143 3.358 7.5 7.5 7.5s7.5-3.357 7.5-7.5v-32.728c0-5.457 3.353-10.253 8.342-11.932 23.555-7.928 39.206-30.838 38.06-55.713-.632-13.753-6.366-26.776-16.146-36.67zm-36.783-16.594c-.069-.005-.139-.009-.208-.013-5.41-.264-10.479-2.377-14.659-6.112-7.304-6.523-16.721-10.116-26.516-10.116-9.81 0-19.229 3.595-26.517 10.117-4.181 3.736-9.229 5.85-14.608 6.112-1.512.075-2.903.197-4.211.368-7.22.898-13.977 3.153-20.038 6.477-4.943-6.982-7.616-15.308-7.616-23.99 0-8.724 2.69-17.082 7.666-24.071 7.38 4.104 15.749 6.59 24.608 6.95 15.147.592 29.827-4.969 40.715-15.209 10.343 9.729 24.104 15.255 38.443 15.255.755 0 1.514-.016 2.271-.046 8.86-.36 17.229-2.846 24.609-6.95 4.976 6.99 7.666 15.347 7.666 24.071 0 8.702-2.684 17.046-7.649 24.038-7.232-4.002-15.279-6.376-23.603-6.857z"></path><path d="m296.41 445.86c-4.142 0-7.5 3.357-7.5 7.5v51.14c0 4.143 3.358 7.5 7.5 7.5s7.5-3.357 7.5-7.5v-51.14c0-4.142-3.358-7.5-7.5-7.5z"></path><path d="m453.992 238.368h-32.325c-2.55 0-4.925 1.296-6.306 3.439-1.381 2.145-1.577 4.843-.522 7.164l5.282 11.62h-20.678c-4.142 0-7.5 3.357-7.5 7.5s3.358 7.5 7.5 7.5h32.325c2.55 0 4.925-1.296 6.306-3.439 1.381-2.145 1.577-4.843.522-7.164l-5.282-11.62h20.678c4.142 0 7.5-3.357 7.5-7.5s-3.358-7.5-7.5-7.5z"></path><path d="m372.926 218.847c1.464 1.464 3.384 2.196 5.303 2.196s3.839-.732 5.303-2.196l22.857-22.857c1.803-1.804 2.566-4.399 2.027-6.892-.54-2.492-2.309-4.539-4.697-5.435l-11.951-4.481 14.621-14.621c2.929-2.93 2.929-7.678 0-10.607-2.929-2.928-7.678-2.928-10.606 0l-22.857 22.857c-1.803 1.804-2.566 4.399-2.027 6.892.54 2.492 2.309 4.539 4.697 5.435l11.951 4.481-14.621 14.621c-2.929 2.929-2.929 7.677 0 10.607z"></path><path d="m391.769 332.818 11.951-4.481c2.388-.896 4.157-2.942 4.697-5.435.54-2.492-.224-5.088-2.027-6.892l-22.857-22.857c-2.929-2.928-7.678-2.928-10.606 0-2.929 2.93-2.929 7.678 0 10.607l14.621 14.621-11.951 4.481c-2.388.896-4.157 2.942-4.697 5.435-.54 2.492.224 5.088 2.027 6.892l22.857 22.857c1.464 1.464 3.384 2.196 5.303 2.196s3.839-.732 5.303-2.196c2.929-2.93 2.929-7.678 0-10.607z"></path><path d="m120.057 268.092c0-4.143-3.358-7.5-7.5-7.5h-20.678l5.282-11.62c1.055-2.321.859-5.02-.522-7.164-1.38-2.144-3.756-3.439-6.306-3.439h-32.325c-4.142 0-7.5 3.357-7.5 7.5s3.358 7.5 7.5 7.5h20.678l-5.282 11.62c-1.055 2.321-.859 5.02.522 7.164 1.38 2.144 3.756 3.439 6.306 3.439h32.325c4.142 0 7.5-3.358 7.5-7.5z"></path><path d="m124.453 193.618 11.951-4.481c2.388-.896 4.157-2.942 4.697-5.435.54-2.492-.224-5.088-2.027-6.892l-22.857-22.857c-2.929-2.928-7.678-2.928-10.606 0-2.929 2.93-2.929 7.678 0 10.607l14.621 14.621-11.951 4.481c-2.388.896-4.157 2.942-4.697 5.435-.54 2.492.224 5.088 2.027 6.892l22.857 22.857c1.464 1.464 3.384 2.196 5.303 2.196s3.839-.732 5.303-2.196c2.929-2.93 2.929-7.678 0-10.607z"></path><path d="m139.074 293.153c-2.929-2.928-7.678-2.928-10.606 0l-22.857 22.857c-1.803 1.804-2.566 4.399-2.027 6.892.54 2.492 2.309 4.539 4.697 5.435l11.951 4.481-14.621 14.621c-2.929 2.93-2.929 7.678 0 10.607 1.464 1.464 3.384 2.196 5.303 2.196s3.839-.732 5.303-2.196l22.857-22.857c1.803-1.804 2.566-4.399 2.027-6.892-.54-2.492-2.309-4.539-4.697-5.435l-11.951-4.481 14.621-14.621c2.929-2.929 2.929-7.677 0-10.607z"></path></g></g></svg>