<svg xmlns="http://www.w3.org/2000/svg" id="Capa_1" height="512" viewBox="0 0 512 512" width="512"><g><path d="m87.833 340.268c.68-1.87.589-3.934-.253-5.737-11.518-24.666-17.358-51.087-17.358-78.531 0-28.189 6.435-56.115 18.669-81.271l15.419 10.129c2.24 1.471 5.095 1.636 7.488.432 2.394-1.204 3.963-3.594 4.118-6.27l6.331-109.947c.154-2.675-1.131-5.229-3.37-6.699-2.24-1.471-5.094-1.636-7.487-.432l-98.39 49.478c-2.394 1.203-3.963 3.593-4.118 6.269-.154 2.675 1.13 5.229 3.37 6.7l17.596 11.558c-19.548 36.782-29.848 78.135-29.848 120.053 0 37.794 8.054 74.203 23.938 108.217 1.761 3.77 6.232 5.366 9.965 3.623l50.051-23.339c1.804-.841 3.199-2.363 3.879-4.233zm-53.371 10.761c-12.919-30.036-19.462-61.967-19.462-95.029 0-41.687 10.816-82.771 31.279-118.814 1.952-3.438.9-7.802-2.404-9.972l-12.53-8.23 75.179-37.805-4.837 84.01-11.531-7.574c-1.753-1.151-3.908-1.517-5.944-1.006-2.035.511-3.763 1.851-4.764 3.694-15.849 29.178-24.226 62.269-24.226 95.697 0 27.127 5.284 53.336 15.718 78.02z"></path><path d="m167.499 83.956c.841 1.803 2.364 3.198 4.234 3.879 1.869.678 3.934.588 5.736-.253 24.666-11.519 51.087-17.359 78.53-17.359 28.188 0 56.113 6.435 81.27 18.669l-10.128 15.419c-1.471 2.239-1.636 5.094-.432 7.487s3.594 3.964 6.27 4.117l109.947 6.331c2.602.159 5.198-1.084 6.699-3.37 1.471-2.239 1.636-5.093.432-7.486l-49.477-98.39c-1.203-2.395-3.593-3.964-6.269-4.118-2.674-.164-5.229 1.131-6.7 3.37l-11.558 17.595c-46.349-24.63-99.505-34.394-151.882-27.881-4.111.511-7.029 4.257-6.518 8.367.512 4.11 4.26 7.032 8.368 6.518 51.597-6.409 103.906 3.944 148.793 29.429 3.439 1.953 7.803.9 9.972-2.405l8.229-12.528 37.806 75.179-84.01-4.838 7.573-11.53c1.152-1.753 1.517-3.909 1.006-5.943-.512-2.035-1.852-3.763-3.694-4.765-29.179-15.85-62.27-24.227-95.696-24.227-27.125 0-53.334 5.284-78.019 15.718l-17.009-36.475c10.267-4.407 20.877-8.108 31.636-11.033 3.997-1.087 6.356-5.208 5.27-9.205-1.086-3.996-5.209-6.354-9.205-5.27-13.992 3.804-27.749 8.845-40.889 14.98-3.751 1.752-5.374 6.213-3.624 9.966z"></path><path d="m499.748 387.611-17.595-11.558c19.547-36.781 29.847-78.133 29.847-120.053 0-37.794-8.054-74.203-23.938-108.217-1.752-3.751-6.212-5.373-9.966-3.623l-50.052 23.339c-1.803.841-3.198 2.363-3.879 4.233-.68 1.87-.589 3.934.253 5.736 11.519 24.667 17.358 51.089 17.358 78.531 0 28.189-6.435 56.115-18.668 81.271l-15.42-10.129c-2.239-1.472-5.095-1.636-7.487-.432-2.394 1.204-3.964 3.594-4.117 6.269l-6.331 109.949c-.154 2.675 1.13 5.229 3.37 6.699 2.242 1.473 5.097 1.634 7.486.432l98.391-49.478c2.395-1.203 3.964-3.593 4.118-6.269.154-2.674-1.13-5.229-3.37-6.7zm-94.272 43.211 4.838-84.011 11.531 7.574c1.753 1.152 3.911 1.518 5.943 1.006 2.035-.511 3.763-1.851 4.765-3.694 15.848-29.178 24.225-62.27 24.225-95.697 0-27.126-5.284-53.334-15.718-78.02l36.479-17.01c12.918 30.038 19.461 61.967 19.461 95.03 0 41.688-10.816 82.773-31.279 118.814-1.952 3.438-.899 7.801 2.405 9.972l12.529 8.229z"></path><path d="m344.501 428.045c-.841-1.803-2.363-3.198-4.233-3.879-1.871-.679-3.934-.588-5.737.253-24.664 11.519-51.085 17.358-78.53 17.358-28.189 0-56.115-6.435-81.27-18.668l10.128-15.42c1.471-2.239 1.636-5.094.432-7.487s-3.594-3.964-6.269-4.117l-28.777-1.656c-4.136-.259-7.681 2.922-7.919 7.057s2.921 7.681 7.057 7.918l15.807.91-7.574 11.531c-1.152 1.753-1.517 3.909-1.006 5.943.511 2.035 1.851 3.763 3.695 4.765 29.177 15.848 62.269 24.225 95.696 24.225 27.128 0 53.336-5.283 78.02-15.717l17.01 36.478c-30.038 12.918-61.968 19.461-95.031 19.461-41.687 0-82.772-10.816-118.814-31.279-3.437-1.95-7.801-.899-9.972 2.405l-8.23 12.528-37.806-75.179 32.348 1.862c4.128.256 7.681-2.921 7.919-7.056.238-4.136-2.921-7.681-7.057-7.919l-45.315-2.609c-2.67-.158-5.228 1.13-6.7 3.37-1.471 2.239-1.636 5.093-.432 7.486l49.478 98.391c1.204 2.395 3.594 3.964 6.269 4.118 2.674.168 5.229-1.13 6.701-3.37l11.558-17.595c36.782 19.547 78.134 29.847 120.053 29.847 37.794 0 74.203-8.055 108.217-23.938 3.751-1.752 5.373-6.213 3.623-9.966z"></path><path d="m320.493 163.393c-2.557-3.259-7.272-3.826-10.53-1.271-3.259 2.557-3.827 7.271-1.271 10.53 10.322 13.156 19.959 24.752 29.461 35.448 17.859 20.104 27.694 46.002 27.694 72.921 0 60.57-49.277 109.848-109.848 109.848-29.307 0-56.917-11.529-77.742-32.466-20.857-20.967-32.258-48.659-32.104-77.975.142-26.736 10.001-52.451 27.763-72.407 13.836-15.546 27.957-33.021 44.438-54.997l37.646-50.191 29.824 39.767c2.485 3.314 7.188 3.985 10.5 1.5 3.313-2.485 3.985-7.187 1.5-10.5l-35.824-47.767c-1.417-1.889-3.639-3-6-3s-4.583 1.111-6 3l-43.644 58.192c-16.225 21.633-30.092 38.8-43.644 54.024-20.189 22.685-31.397 51.912-31.558 82.3-.176 33.338 12.776 64.815 36.469 88.634 23.662 23.787 55.048 36.887 88.377 36.887 68.841 0 124.848-56.007 124.848-124.848 0-30.595-11.18-60.029-31.479-82.882-9.299-10.466-18.743-21.831-28.876-34.747z"></path><path d="m209.3 252.672c5.301-8.725 3.548-20.041-4.167-26.906-4.736-4.215-11.049-6.1-17.325-5.159-6.201.926-11.618 4.511-14.863 9.838-14.903 24.459-17.963 53.791-9.639 79.909 2.104 6.604 7.071 11.642 13.625 13.82 6.534 2.174 13.46 1.096 18.996-2.858l.127-.091c7.526-5.376 10.681-14.965 7.85-23.859-4.655-14.629-2.898-31.044 5.396-44.694zm-12.819-7.789c-6.543 10.77-10.038 23.135-10.104 35.759v.001c-.038 7.251 1.05 14.408 3.234 21.271.85 2.67-.065 5.525-2.26 7.094l-.127.091c-2.235 1.597-4.442 1.212-5.559.842-1.953-.649-3.435-2.158-4.066-4.142-7.116-22.326-4.295-47.115 8.156-67.55 1.266-2.077 3.217-2.65 4.268-2.807 1.883-.281 3.749.292 5.139 1.528 2.304 2.051 2.859 5.379 1.319 7.913z"></path><path d="m221.24 371.815c5.579 2.153 11.396 3.791 17.29 4.867 6.139 1.123 12.458-.522 17.309-4.567 4.869-4.06 7.662-10.021 7.662-16.357v-.127c0-10.225-7.336-19.013-17.443-20.897 0 0 0 0-.001 0-3.237-.604-6.436-1.512-9.506-2.699-10.507-4.068-22.387.763-27.041 10.992l-.057.125c-2.443 5.37-2.56 11.336-.329 16.799 2.216 5.424 6.633 9.748 12.116 11.864zm1.864-22.449.057-.125c1.372-3.015 4.877-4.415 7.976-3.219 3.932 1.521 8.026 2.685 12.171 3.457 3.008.561 5.192 3.147 5.192 6.151v.127c0 1.872-.827 3.636-2.268 4.837-.825.688-2.575 1.772-5.007 1.332-4.973-.908-9.879-2.289-14.584-4.105-1.671-.645-2.96-1.903-3.63-3.544-.654-1.597-.619-3.343.093-4.911z"></path></g></svg>