<svg xmlns="http://www.w3.org/2000/svg" viewBox="0 0 64 64" width="512" height="512"><g id="Layer_2" data-name="Layer 2"><path d="M8,29.9277A3.2437,3.2437,0,0,0,10.8394,33.12l11.5268,1.439.49,17.5058a1,1,0,0,0,1.9991-.0556l-.5142-18.3638a1,1,0,0,0-.8755-.9643L11.11,31.1387A1.2514,1.2514,0,0,1,10,29.9277a1.2764,1.2764,0,0,1,1.3184-1.2265H52.6816A1.2764,1.2764,0,0,1,54,29.9277a1.245,1.245,0,0,1-1.0874,1.208L40.5342,32.6812a1,1,0,0,0-.8755.9643l-.5142,18.3638a1,1,0,0,0,.9717,1.0273l.0283.0005a1,1,0,0,0,.9991-.9722l.49-17.5058,11.55-1.4419A3.238,3.238,0,0,0,56,29.9277a3.2771,3.2771,0,0,0-3.3184-3.2265H11.3184A3.2771,3.2771,0,0,0,8,29.9277Z"></path><path d="M32,44.1582a1,1,0,0,0-.9727.7681l-1.8,7.5464a1,1,0,0,0,1.9453.4638L32,49.4678l.8276,3.4687a1,1,0,0,0,1.9453-.4638l-1.8-7.5464A1,1,0,0,0,32,44.1582Z"></path><path d="M24.0352,13.8151c-.0115,2.6584,1.0283,7.2784,3.5322,9.95a5.8049,5.8049,0,0,0,8.8652,0c2.5295-2.6984,3.5636-7.3832,3.53-10.0278,1.9912-2.0354,2.2957-5.936,1.97-8.2143-.1836-1.2852-.6523-2.92-1.8423-3.41-.916-.3779-1.6816.2407-2.3584.7847A5.3722,5.3722,0,0,1,32.2666,4.15c-3.1113-.86-8.5713-.7617-9.9888,3.1626A6.1766,6.1766,0,0,0,24.0352,13.8151Zm10.9379,8.5814a3.8259,3.8259,0,0,1-5.9462,0c-1.7817-1.9-2.7464-5.2921-2.9433-7.66a3.2515,3.2515,0,0,0,1.0907-.0645A3.8141,3.8141,0,0,0,29.2,13.314a9.2522,9.2522,0,0,0,5.8989,2.4843,6.6463,6.6463,0,0,0,2.7735-.607C37.5959,17.5234,36.6426,20.616,34.9731,22.3965ZM24.1587,7.9922c.8989-2.4878,5.05-2.6133,7.5747-1.9146a7.3448,7.3448,0,0,0,7.2515-1.6215c.1421-.1143.3178-.2549.456-.354a5.99,5.99,0,0,1,.6011,2.6718c.1123,2.5161-.5938,4.9009-1.7168,5.7984-4.2148,3.3681-8.3608-1.2959-8.5337-1.4937a1.0011,1.0011,0,0,0-.7568-.3462,1.0152,1.0152,0,0,0-.1206.0073,1,1,0,0,0-.771.54,2.5369,2.5369,0,0,1-1.4546,1.4526,1.3437,1.3437,0,0,1-1.0664-.1987A4.1882,4.1882,0,0,1,24.1587,7.9922Z"></path><path d="M46.4985,37.2554a1,1,0,1,0-.6445,1.8935c5.6416,1.92,9.146,4.5264,9.146,6.8,0,4.3462-9.2422,9-23,9s-23-4.6538-23-9c0-2.2739,3.5044-4.88,9.146-6.8a1,1,0,1,0-.6445-1.8935C13.58,38.5908,7,41.4956,7,45.9492c0,4.7606,6.5436,8.7224,15.9731,10.284l.0733,2.6228a3.3361,3.3361,0,0,0,6.5605.6425l.6153-2.5786c.5874.0174,1.1787.0293,1.7778.0293s1.19-.0119,1.7778-.0293l.6153,2.5791a3.3361,3.3361,0,0,0,6.5605-.643l.0733-2.6228C50.4564,54.6716,57,50.71,57,45.9492,57,41.4956,50.42,38.5908,46.4985,37.2554ZM27.6616,59.0342A1.3158,1.3158,0,0,1,26.3691,60a1.2919,1.2919,0,0,1-1.3237-1.2l-.0636-2.2771c1.0416.1294,2.11.2331,3.2066.3039ZM38.9546,58.8A1.2919,1.2919,0,0,1,37.6309,60a1.316,1.316,0,0,1-1.2925-.9653l-.5268-2.2076c1.0965-.0709,2.165-.1745,3.2066-.3039Z"></path><path d="M8.4644,20.8569a1,1,0,0,0,.6928-1.7212L4.4434,14.6069l4.7138-4.5288A1,1,0,0,0,7.7715,8.6357l-5.4644,5.25a1,1,0,0,0,0,1.4424l5.4644,5.25A.9971.9971,0,0,0,8.4644,20.8569Z"></path><path d="M61.6929,13.8857l-5.4644-5.25a1,1,0,0,0-1.3857,1.4424l4.7138,4.5288-4.7138,4.5288a1,1,0,0,0,1.3857,1.4424l5.4644-5.25a1,1,0,0,0,0-1.4424Z"></path></g></svg>