<svg xmlns="http://www.w3.org/2000/svg" id="Capa_1" height="512" viewBox="0 0 512 512" width="512"><g><path d="m406.118 317.721c3.987-1.12 6.312-5.261 5.192-9.249l-19.731-70.255 1.693-48.128c.146-4.14-3.092-7.613-7.231-7.759-4.119-.17-7.613 3.091-7.759 7.231l-1.731 49.21c-.001.031-.006.062-.007.094-3.793 119.428-4.45 137.151-4.443 137.267l6.504 120.868h-179.025c-4.143 0-7.5 3.358-7.5 7.5s3.357 7.5 7.5 7.5h181.664c3.416 0 6.724-1.422 9.073-3.902s3.592-5.858 3.408-9.269l-6.629-123.178 2.857-87.743 6.915 24.621c1.121 3.986 5.256 6.313 9.25 5.192z"></path><path d="m164.58 497h-31.186s6.519-121.298 6.512-121.514c-.826-25.699-4.173-127.882-4.45-136.62-.001-.032-.006-.062-.007-.094l-1.731-49.21c-.146-4.139-3.618-7.366-7.759-7.232-4.14.146-7.377 3.62-7.231 7.759l1.693 48.128-19.731 70.255c-1.12 3.988 1.205 8.128 5.192 9.249 3.992 1.121 8.129-1.206 9.249-5.193l6.915-24.621 2.857 87.744-6.629 123.177c-.184 3.412 1.059 6.79 3.408 9.27s5.658 3.902 9.074 3.902h33.824c4.143 0 7.5-3.358 7.5-7.5s-3.357-7.5-7.5-7.5z"></path><path d="m312.698 70.913 99.461 30.39c7.557 2.308 13.413 8.502 15.286 16.168l42.26 172.91c.981 4.015 5.032 6.49 9.065 5.505 4.024-.983 6.488-5.042 5.505-9.066l-42.259-172.909c-3.122-12.78-12.884-23.108-25.476-26.954l-99.454-30.388c-1.063-.326-1.777-1.29-1.777-2.399v-46.67c0-4.142-3.357-7.5-7.5-7.5s-7.5 3.358-7.5 7.5v46.67c.001 7.744 4.977 14.472 12.389 16.743z"></path><path d="m33.229 295.886c.598.146 1.196.216 1.786.216 3.376 0 6.442-2.296 7.279-5.721l42.261-172.912c1.872-7.664 7.729-13.859 15.286-16.167l99.466-30.392c7.406-2.27 12.383-8.998 12.383-16.741v-46.669c0-4.142-3.357-7.5-7.5-7.5s-7.5 3.358-7.5 7.5v46.67c0 1.109-.714 2.074-1.771 2.397l-99.459 30.39c-12.593 3.845-22.354 14.173-25.476 26.952l-42.26 172.91c-.983 4.024 1.481 8.083 5.505 9.067z"></path><path d="m268.098 133.455c3.35 2.436 8.04 1.696 10.477-1.654l6.216-8.547c1.582-2.175 4.133-3.474 6.823-3.474h49.878c4.143 0 7.5-3.358 7.5-7.5s-3.357-7.5-7.5-7.5h-49.878c-7.473 0-14.559 3.608-18.954 9.651l-6.216 8.546c-2.437 3.351-1.697 8.041 1.654 10.478z"></path><path d="m163.009 112.28c0 4.142 3.357 7.5 7.5 7.5h49.878c2.69 0 5.241 1.299 6.823 3.475l6.216 8.546c2.44 3.355 7.133 4.086 10.477 1.654 3.351-2.437 4.091-7.127 1.654-10.477l-6.216-8.546c-4.396-6.043-11.481-9.651-18.954-9.651h-49.878c-4.143-.001-7.5 3.357-7.5 7.499z"></path><path d="m236.397 392.33c-1.854 3.674-2.897 7.823-2.897 12.211v49.888c0 10.838 8.817 19.655 19.655 19.655h5.69c10.838 0 19.654-8.817 19.654-19.655v-29.599c0-1.378 1.121-2.5 2.5-2.5h22.182c10.211 0 19.757-4.031 26.879-11.351 7.12-7.318 10.887-16.977 10.606-27.197-.32-11.706-6.252-22.141-15.193-28.814 9.221-6.838 15.208-17.802 15.208-30.137 0-20.678-16.822-37.5-37.5-37.5h-18.751c1.791-3.604 2.798-7.663 2.798-11.953v-94.295c0-8.263-6.723-14.986-14.986-14.986h-15.028c-8.264 0-14.986 6.723-14.986 14.986v15.514c0 4.142 3.357 7.5 7.5 7.5s7.493-3.358 7.493-7.5v-15.5h15.008v94.281c0 6.59-5.361 11.952-11.952 11.953h-42.684c-4.143 0-7.5 3.358-7.5 7.5s3.357 7.5 7.5 7.5h85.59c12.406 0 22.5 10.093 22.5 22.5 0 12.406-10.094 22.5-22.5 22.5h-85.59c-4.143 0-7.5 3.358-7.5 7.5s3.357 7.5 7.5 7.5h84.966c12.416 0 22.785 9.808 23.115 21.863.168 6.138-2.092 11.936-6.363 16.326-4.273 4.393-10.001 6.812-16.128 6.812h-22.183c-9.649 0-17.5 7.851-17.5 17.5v29.599c0 2.566-2.088 4.655-4.654 4.655h-5.69c-2.567 0-4.655-2.088-4.655-4.655v-49.888c0-6.733 5.479-12.211 12.212-12.211h34.29c4.143 0 7.5-3.358 7.5-7.5s-3.357-7.5-7.5-7.5h-86.184c-12.406 0-22.5-10.093-22.5-22.5 0-12.406 10.093-22.5 22.499-22.5h86.185c4.143 0 7.5-3.358 7.5-7.5s-3.357-7.5-7.5-7.5h-86.185c-6.127 0-11.854-2.419-16.127-6.812-4.271-4.39-6.531-10.188-6.363-16.326.331-12.055 10.7-21.862 23.115-21.862h30.284c9.649 0 17.5-7.851 17.5-17.5v-23.233c0-4.142-3.357-7.5-7.5-7.5s-7.5 3.358-7.5 7.5v23.233c0 1.378-1.121 2.5-2.5 2.5h-30.284c-20.462 0-37.559 16.352-38.109 36.451-.28 10.221 3.486 19.88 10.605 27.197 1.375 1.413 2.841 2.704 4.384 3.867-9.105 6.848-15.004 17.741-15.004 29.985 0 20.678 16.822 37.5 37.5 37.5h27.578z"></path><path d="m472.661 342.406-21.607 11.501-.678-1.449c-1.315-2.812-3.768-4.957-6.729-5.885-2.963-.929-6.202-.567-8.887.991l-22.39 12.992c-3.583 2.079-4.802 6.668-2.724 10.251 1.392 2.398 3.908 3.737 6.494 3.737 3.507 0 3.892-1.465 22.457-11.865l.613 1.311c1.283 2.741 3.666 4.863 6.536 5.821 2.871.958 6.049.692 8.725-.73l25.237-13.434c3.657-1.946 5.043-6.488 3.097-10.145-1.946-3.655-6.486-5.044-10.144-3.096z"></path><path d="m467.51 428.823-23.188-7.839.589-1.485c1.146-2.886 1.025-6.143-.331-8.936-1.355-2.793-3.839-4.903-6.814-5.789l-24.811-7.386c-3.973-1.181-8.146 1.08-9.328 5.049-1.182 3.97 1.079 8.146 5.049 9.328l20.721 6.168-.534 1.347c-1.115 2.813-1.024 6.002.247 8.749s3.642 4.884 6.514 5.848c28.439 9.545 27.301 9.553 29.487 9.553 3.128 0 6.047-1.973 7.104-5.1 1.325-3.925-.78-8.181-4.705-9.507z"></path><path d="m66.253 369.811c2.87-.958 5.253-3.08 6.536-5.821l.613-1.311c18.707 10.48 18.958 11.865 22.457 11.865 2.586 0 5.103-1.339 6.494-3.737 2.078-3.583.859-8.172-2.724-10.251l-22.39-12.992c-2.685-1.56-5.925-1.92-8.887-.991-2.962.928-5.414 3.074-6.729 5.884l-.679 1.45-21.607-11.501c-3.659-1.948-8.199-.559-10.145 3.097s-.561 8.198 3.097 10.145l25.239 13.435c2.674 1.419 5.85 1.687 8.725.728z"></path><path d="m99.046 397.389-24.811 7.386c-2.976.886-5.459 2.995-6.814 5.789-1.356 2.793-1.477 6.05-.333 8.932l.591 1.489-23.188 7.839c-3.925 1.326-6.03 5.583-4.704 9.507 1.058 3.128 3.977 5.101 7.104 5.1 2.181 0 .953.025 29.489-9.553 2.87-.963 5.24-3.101 6.512-5.848 1.271-2.746 1.362-5.935.247-8.75l-.534-1.346 20.721-6.168c3.97-1.182 6.23-5.358 5.049-9.328-1.183-3.97-5.355-6.229-9.329-5.049z"></path></g></svg>