<svg xmlns="http://www.w3.org/2000/svg" xmlns:xlink="http://www.w3.org/1999/xlink" id="Capa_1" x="0px" y="0px" viewBox="0 0 480.029 480.029" style="enable-background:new 0 0 480.029 480.029;" xml:space="preserve"><g>	<g>		<g>			<path d="M372.096,79.121c-26.763-48.695-77.875-79.001-133.44-79.12h-14.56c-57.876-0.16-110.82,32.562-136.56,84.4l14.24,7.2    c23.028-46.457,70.469-75.778,122.32-75.6h14.56c49.932-0.098,95.941,27.047,120,70.8c27.434,49.915,25.596,110.791-4.8,158.96    l-116.4,184c-20.914,34.287-65.663,45.129-99.95,24.215c-21.832-13.317-35.065-37.123-34.85-62.695v-39.28h-16v39.28    c-0.016,48.999,39.692,88.733,88.691,88.749c30.47,0.01,58.813-15.617,75.069-41.389l116.24-184.32    C400.22,201.263,402.304,134.158,372.096,79.121z"></path>			<path d="M246.016,306.881c-14.146,22.987-39.17,37.027-66.16,37.12v16c32.647-0.066,62.927-17.053,80-44.88l56.8-93.52    c31.281-51.408,14.966-118.44-36.442-149.722c-17.055-10.378-36.634-15.871-56.598-15.878    c-39.139-0.032-73.895,25.019-86.24,62.16c-9.082,26.969-2.039,56.755,18.16,76.8c5.229,5.397,8.105,12.646,8,20.16v24.88h16    v-24.88c-0.005-11.669-4.637-22.86-12.88-31.12c-15.88-15.801-21.402-39.253-14.24-60.48c6.845-20.615,22.322-37.231,42.4-45.52    c19.431,7.164,35.774,20.849,46.24,38.72c15.536,27.105,15.536,60.415,0,87.52l-36.64,64l13.92,8l36.64-64    c18.448-32.214,18.326-71.82-0.32-103.92c-8.51-14.756-20.48-27.221-34.88-36.32h3.84c51.34,0.207,92.792,41.994,92.585,93.334    c-0.068,16.917-4.751,33.494-13.545,47.946L246.016,306.881z"></path>		</g>	</g></g><g></g><g></g><g></g><g></g><g></g><g></g><g></g><g></g><g></g><g></g><g></g><g></g><g></g><g></g><g></g></svg>