<svg xmlns="http://www.w3.org/2000/svg" id="Image" height="512" viewBox="0 0 64 64" width="512"><g><path d="m45.896 38.196c-.035-.022-.071-.034-.107-.053.362-1.483.51-3.819.51-7.292.001-3.783-4.194-10.851-14.299-10.851-10.104 0-14.299 7.068-14.299 10.852 0 3.473.148 5.809.51 7.292-.036.019-.072.03-.108.053-.763.479-1.103 1.47-1.103 3.21 0 2.984 1.028 5.458 2.558 6.154.325.147.667.213.999.204.337 4.102 2.104 6.002 3.314 7.304.127.137.24.261.351.384-.055.586-.288 1.852-1.273 2.842-.39.392-.388 1.024.004 1.414.195.194.451.291.706.291.257 0 .514-.098.709-.295.761-.766 1.211-1.625 1.48-2.396 1.815 2.039 2.616 2.691 6.152 2.691 3.537 0 4.337-.652 6.152-2.691.269.771.719 1.631 1.481 2.396.195.197.452.295.709.295.255 0 .511-.097.705-.291.392-.39.394-1.023.004-1.415-.984-.989-1.218-2.253-1.274-2.84.112-.124.226-.25.354-.387 1.209-1.301 2.975-3.202 3.313-7.303.341.016.675-.056.999-.204 1.53-.695 2.557-3.168 2.557-6.153 0-1.74-.34-2.731-1.104-3.211zm-13.896-16.196c8.586 0 12.3 5.861 12.3 8.852 0 4.33-.264 6.197-.481 6.999-.376-.915-.744-2.734-.963-3.817-.595-2.941-.988-4.885-2.456-4.885-.623 0-1.092.085-1.686.192-1.057.191-2.653.479-6.721.509-.02 0-.041.001-.061.002-2.209-.01-3.843-.499-5.159-.893-.92-.276-1.716-.514-2.475-.514-1.802 0-2.394 2.565-3.143 5.812-.248 1.073-.624 2.702-.981 3.57-.216-.816-.474-2.688-.474-6.975.001-2.991 3.715-8.852 12.3-8.852zm11.614 23.741c-.064.027-.179.081-.457-.161-.298-.258-.714-.318-1.071-.156-.356.162-.586.518-.586.91 0 4.322-1.572 6.013-2.835 7.372-.336.362-.655.706-.923 1.072-.382.411-.708.779-1 1.107-1.59 1.792-1.876 2.115-4.742 2.115-2.867 0-3.153-.323-4.744-2.117-.291-.328-.617-.695-.998-1.105-.267-.367-.586-.709-.922-1.071-1.264-1.359-2.836-3.05-2.836-7.373 0-.392-.229-.748-.586-.91-.355-.163-.775-.102-1.071.156-.277.241-.396.189-.458.161-.558-.255-1.385-1.808-1.385-4.334 0-.816.092-1.229.157-1.419.006.003.011.005.018.008.266.203.571.3.925.3h.001c1.715 0 2.284-2.467 3.004-5.59.326-1.412.861-3.734 1.328-4.257.456.032 1.068.216 1.767.425 1.377.413 3.263.978 5.8.978.026 0 .052-.001.077-.003 4.189-.034 5.875-.338 6.993-.54.398-.072.696-.126 1.007-.148.277.594.599 2.179.818 3.27.637 3.147 1.187 5.866 3.005 5.866h.001.001c.353 0 .659-.097.924-.3.006-.003.011-.005.017-.008.065.19.157.602.157 1.418 0 2.526-.827 4.079-1.386 4.334z"></path><path d="m30 12h2.613l-1.562 4.684c-.175.524.108 1.09.632 1.265.106.035.213.051.317.051.419 0 .809-.265.949-.684l2-6c.103-.305.051-.64-.137-.901-.189-.261-.491-.415-.812-.415h-2.613l1.562-4.684c.174-.524-.108-1.09-.632-1.265-.525-.176-1.09.109-1.265.632l-2 6c-.102.305-.05.64.138.901.187.262.489.416.81.416z"></path><path d="m50.707 8.293c-.391-.391-1.023-.391-1.414 0l-5 5c-.228.227-.332.55-.28.867s.253.59.54.734l2.603 1.301-3.78 3.024c-.431.345-.501.974-.156 1.405.197.248.487.376.781.376.219 0 .439-.072.624-.219l5-4c.266-.213.405-.547.369-.886-.035-.339-.242-.636-.547-.789l-2.759-1.379 4.019-4.019c.391-.392.391-1.024 0-1.415z"></path><path d="m21.051 20.316c.14.419.53.684.949.684.104 0 .211-.017.316-.052.524-.175.807-.741.632-1.265l-2-6c-.092-.275-.298-.497-.566-.607-.269-.111-.571-.101-.83.029l-2.922 1.461-1.669-5.842c-.152-.531-.704-.839-1.236-.687-.531.152-.838.705-.687 1.236l2 7c.082.286.287.521.559.641.271.118.583.112.85-.021l2.969-1.484z"></path></g></svg>