<svg xmlns="http://www.w3.org/2000/svg" viewBox="0 0 64 64" width="512" height="512"><g id="Cracked_foot" data-name="Cracked foot"><path d="M61,41H41.28L37,38.43V33a.986.986,0,0,0-.03-.24l-.88-3.51,4.68-5.61A1,1,0,0,0,41,23V20a.988.988,0,0,0-.55-.89L39,18.38V16a1,1,0,0,0-1-1H36V13a1,1,0,0,0-1-1H33.62l.27-.55a1.027,1.027,0,0,0,.06-.77l-1-3a1,1,0,0,0-1.19-.65l-1.89.47.04-.09A.994.994,0,0,0,29.8,6.4l-3-4a.994.994,0,0,0-1.25-.29l-6,3a.977.977,0,0,0-.52.65l-.95,3.8-4.62,6.16a4.987,4.987,0,0,0-.75,4.58l.29.87a1.866,1.866,0,0,1,.07.22l2.43,9.72a18.933,18.933,0,0,1-.7,11.43l-2.73,7.1A.922.922,0,0,0,12,50v5a7.008,7.008,0,0,0,7,7h3a1.355,1.355,0,0,0,.2-.02l6.64-1.33a19.165,19.165,0,0,1,6.41-.18l10.61,1.52A.66.66,0,0,0,46,62H61a1,1,0,0,0,1-1V42A1,1,0,0,0,61,41ZM60,60H46.07L35.53,58.49a21.113,21.113,0,0,0-7.09.2L21.9,60H19a5,5,0,0,1-5-5V50.19l2.67-6.93a20.977,20.977,0,0,0,.77-12.63l-2.43-9.72c-.03-.13-.07-.25-.11-.37l-.29-.87a3.013,3.013,0,0,1,.45-2.75L19.8,10.6a.993.993,0,0,0,.17-.36l.89-3.55L25.7,4.27l2.14,2.86L23.09,17.59l1.82.82,3.9-8.58,2.53-.64.58,1.73-3.81,7.63,1.78.9L32.62,14H34v1.72l-2.86,4.77,1.72,1.02L35.57,17H37v1.67L34.2,22.4l1.6,1.2,2.5-3.33.7.35v2.02l-4.77,5.72a1,1,0,0,0-.2.88L35,33.12V39a.99.99,0,0,0,.49.86l5,3A1,1,0,0,0,41,43H60Z"></path><path d="M43,5.135V7a1,1,0,0,0,1.243.97l4.9-1.226-4.9,5.6a1,1,0,0,0,.477,1.62l3.717,1.061-6.729,2.019.574,1.916,10-3a1,1,0,0,0-.012-1.92l-5.484-1.566,5.961-6.814a1,1,0,0,0-1-1.628L45,5.719V3a1,1,0,0,0-1.64-.769l-6,5,1.28,1.538Z"></path><path d="M12.713,40.042l-6.672,2,4.711-5.386a1,1,0,0,0-.256-1.526L5.657,32.366l5.586-1.4a1,1,0,0,0,.538-1.595L8.754,25.592l2.489-.622-.486-1.94-4,1a1,1,0,0,0-.538,1.595l3.027,3.783L2.757,31.03A1,1,0,0,0,2.5,32.868l5.938,3.394-6.194,7.08A1,1,0,0,0,3,45a1.012,1.012,0,0,0,.287-.042l10-3Z"></path><path d="M47.857,27.515a1,1,0,0,0-1.251-1.434l-7,3,.788,1.838,4.157-1.781-1.408,2.347A1,1,0,0,0,43.917,33l5.98.5-6.14,1.535a1,1,0,0,0-.129,1.9l5,2,.744-1.858-2.129-.851,9-2.25A1,1,0,0,0,56.083,32l-10.4-.867Z"></path></g></svg>