<svg xmlns="http://www.w3.org/2000/svg" id="Layer_1" height="512" viewBox="0 0 512 512" width="512"><g id="XMLID_2399_"><g id="XMLID_211_"><path id="XMLID_2320_" d="m260.4 510h-106.7c-2.8 0-5-2.2-5-5v-23.8c0-1.7.9-3.3 2.3-4.2 33-21.3 68.7-50.4 68.7-60.3 0-6.9-2.2-21.6-4.8-38.6-4.3-28.1-9.6-63.1-9.6-91.3 0-38.8 12.2-64.4 15.5-70.5l-2-32.2c-3.7-4.4-13.5-18-13.5-39.8 0-36.8 22.8-138.2 23.8-142.5l9.8 2.2c-.2 1-23.6 104.7-23.6 140.3 0 21.9 11.4 33.7 11.9 34.2.8.9 1.4 2 1.4 3.2l2.2 35.3c.1 1-.2 2-.7 2.8-.1.2-14.8 26-14.8 66.9 0 27.4 5.2 62 9.5 89.8 2.7 18.1 4.9 32.4 4.9 40.1 0 6.1-3.9 17.2-37.4 43.2-14 10.9-28.1 20.4-33.6 24v16.2h101.7c5.1 0 10-2.3 13.3-6.2s4.6-9.1 3.7-14.1c-2.3-12.4-5.9-21.5-9.1-29.5-4-10-7.5-18.7-5.9-29 .7-4.5 1.4-10.7 2.2-17.9 4-34.5 7.9-63.7 16.5-72.2 8.3-8.3 17.7-51.9 5.3-102.4-.2-1-.2-2.1.2-3l31.7-80.5c.1-.1.1-.3.2-.4.2-.5 24.8-51.3 34.9-142.4l9.9 1.1c-10.1 91-33.9 141.4-35.8 145.5l-31 78.9c12.1 51.1 3.4 98.5-8.3 110.3-6.7 6.7-11.2 45.5-13.6 66.3-.8 7.3-1.6 13.6-2.3 18.3-1.2 7.7 1.6 14.4 5.3 23.8 3.2 8 7.2 18 9.7 31.4 1.5 8-.7 16.1-5.9 22.3-5.2 6.1-12.9 9.7-21 9.7z"></path></g><g id="XMLID_212_"><path id="XMLID_2319_" d="m238.1 240.4c-.9 0-1.6-.1-2.3-.2-8-1.4-13.5-9.5-14.9-22.1l9.9-1.2c1 8.7 4.1 13 6.7 13.4 3.3.6 9.1-3.9 14.6-15.1l9 4.4c-8.5 17.4-17.4 20.8-23 20.8z"></path></g><g id="XMLID_213_"><path id="XMLID_2318_" d="m229.1 150.9h10v34.8h-10z" transform="matrix(.798 .603 -.603 .798 148.8 -107.102)"></path></g><g id="XMLID_214_"><path id="XMLID_2317_" d="m319.5 150.8c-.6-.5-14.8-13.2-27.4-33.3-16.9-27-22.7-54.4-16.7-79.5l9.7 2.3c-13 54.3 40.4 102.5 41 102.9z"></path></g><g id="XMLID_215_"><path id="XMLID_2316_" d="m270.8 195.2c-45-26.8-31.7-93.8-31.1-96.7l9.8 2c-.1.6-12.4 62.9 26.5 86.1z"></path></g><g id="XMLID_216_"><path id="XMLID_2315_" d="m265.6 327.5h10v34.5h-10z" transform="matrix(.589 .808 -.808 .589 389.931 -76.942)"></path></g><g id="XMLID_217_"><path id="XMLID_2314_" d="m234.4 510h-29.4c-2.8 0-5-2.2-5-5v-16.9c0-1.3.5-2.6 1.4-3.5l16.7-16.9 7.1 7-15.2 15.5v9.8h21.2l6.6-14 9 4.3-8 16.9c-.7 1.7-2.4 2.8-4.4 2.8z"></path></g><g id="XMLID_218_"><path id="XMLID_2313_" d="m180 488h10v17h-10z"></path></g><g id="XMLID_219_"><path id="XMLID_2312_" d="m163 488h10v17h-10z"></path></g></g></svg>