<svg xmlns="http://www.w3.org/2000/svg" id="massage" height="512" viewBox="0 0 300 300" width="512"><g><path d="m62 76c6.617 0 12-5.383 12-12s-5.383-12-12-12-12 5.383-12 12 5.383 12 12 12zm0-16c2.207 0 4 1.795 4 4s-1.793 4-4 4-4-1.795-4-4 1.793-4 4-4z"></path><path d="m105.516 88.484c.781.781 1.805 1.172 2.828 1.172s2.047-.391 2.828-1.172l2.828-2.828 2.828 2.828c.781.781 1.805 1.172 2.828 1.172s2.047-.391 2.828-1.172c1.562-1.562 1.562-4.094 0-5.656l-2.828-2.828 2.828-2.828c1.562-1.562 1.562-4.094 0-5.656s-4.094-1.562-5.656 0l-2.828 2.828-2.828-2.828c-1.562-1.562-4.094-1.562-5.656 0s-1.562 4.094 0 5.656l2.828 2.828-2.828 2.828c-1.563 1.563-1.563 4.094 0 5.656z"></path><path d="m68.088 105.235c0 2.362 1.915 4.276 4.276 4.276s4.277-1.915 4.277-4.276-1.915-4.277-4.277-4.277-4.276 1.915-4.276 4.277z"></path><path d="m244.364 77.511c2.362 0 4.277-1.915 4.277-4.276s-1.915-4.277-4.277-4.277-4.276 1.915-4.276 4.277 1.914 4.276 4.276 4.276z"></path><path d="m266 252h-12v-48h4c8.824 0 16-7.178 16-16 0-5.896-3.241-10.999-8-13.775v-9.251c0-7.154-5.82-12.975-12.973-12.975h-39.027v-33.975c0-15.794-10.831-29.07-25.445-32.887 3.348-3.687 5.445-8.533 5.445-13.894v-11.243c0-11.027-8.973-20-20-20s-20 8.973-20 20v27.06c-11.777 5.356-20 17.206-20 30.965v5.975h-16c-6.617 0-12 5.383-12 12 0 1.409.289 2.743.737 4h-.132c-6.856 0-12.897 3.399-16.645 8.564-3.778-5.165-9.838-8.564-16.714-8.564h-25.953c-7.328 0-13.293 5.963-13.293 13.293v20.859c-4.865 2.827-8 8.112-8 13.848 0 8.822 7.176 16 16 16v48h-8c-2.211 0-4 1.791-4 4s1.789 4 4 4h232c2.211 0 4-1.791 4-4s-1.789-4-4-4zm-20 0h-4v-48h4zm-148-48v16c0 6.617 5.383 12 12 12s12-5.383 12-12v-16h29.631l2.183 48h-91.814v-48zm61.64 0h10.36v48h-8.177zm18.36 0h10.361l-2.184 48h-8.177zm18.369 0h37.631v48h-39.814zm61.631-8h-136v-16h136c4.41 0 8 3.588 8 8s-3.59 8-8 8zm-96-112v-24c0-6.617 5.383-12 12-12s12 5.383 12 12v11.244c0 7.033-5.723 12.756-12.754 12.756h-5.223zm-24 48c2.211 0 4-1.791 4-4v-9.975c0-14.349 11.676-26.025 26.023-26.025h5.223 6.73c14.348 0 26.024 11.676 26.024 26.025v33.975h-8v-32c0-2.209-1.789-4-4-4s-4 1.791-4 4v32h-15.477c-3.608-6.063-9.674-10.228-16.523-11.527v-16.473c0-2.209-1.789-4-4-4s-4 1.791-4 4v16h-20v-8zm-24 4c0-2.205 1.793-4 4-4h4v8h-4c-2.207 0-4-1.795-4-4zm-20 24.605c0-6.951 5.656-12.605 12.605-12.605h46.902c6.402 0 12.277 3.793 14.965 9.664.652 1.424 2.07 2.336 3.637 2.336h80.918c2.742 0 4.973 2.232 4.973 4.975v7.025h-136v-8c0-2.209-1.789-4-4-4s-4 1.791-4 4v56c0 2.205-1.793 4-4 4s-4-1.795-4-4v-60c0-2.209-1.789-4-4-4s-4 1.791-4 4v12h-4v-11.244zm-8 .151v11.244h-28.404c.264-1.293.404-2.63.404-4v-20h15.246c7.031 0 12.754 5.723 12.754 12.756zm-44-7.463c0-2.918 2.375-5.293 5.293-5.293h2.707v20c0 5.215-3.344 9.664-8 11.314zm-8 34.707c0-.814.131-1.61.367-2.365.627 1.389 2.009 2.365 3.633 2.365 6.516 0 12.259-3.179 15.912-8.018.031.001.057.018.088.018h36 8v16h-56c-4.41 0-8-3.588-8-8zm16 16h4v48h-4z"></path></g></svg>