<svg xmlns="http://www.w3.org/2000/svg" id="Capa_1" height="512" viewBox="0 0 512 512" width="512"><g><path d="m433.26 150.277h-103.978c-5.718-5.541-20.718-17.406-44.315-17.406h-9.305c.651-.714 1.291-1.444 1.912-2.197 11.761-14.262 17.977-35.323 17.977-60.907-.001-39.774-26.079-69.767-60.66-69.767s-60.659 29.993-60.659 69.767c0 20.615 3.879 36.646 10.106 48.808-5.417.133-10.097 1.118-13.03 1.907l-98.136-47.077c2.632-11.038 6.041-21.941 10.256-32.62l6.655 15.88c1.204 2.873 3.988 4.603 6.92 4.603.967 0 1.949-.188 2.896-.585 3.819-1.601 5.619-5.996 4.018-9.816l-13.287-31.704c-.769-1.834-2.235-3.288-4.076-4.042-1.841-.753-3.905-.744-5.74.024l-31.703 13.289c-3.82 1.602-5.619 5.996-4.018 9.816s5.995 5.616 9.816 4.018l14.165-5.937c-3.892 9.989-7.133 20.156-9.725 30.444l-.02-.01c-6.591-3.16-13.99-3.499-20.84-.951-6.848 2.545-12.232 7.641-15.161 14.348-5.774 13.225.083 28.562 13.334 34.918l15.02 7.206c-.908 33.33 4.727 66.788 16.863 98.479l-13.635-5.715c-3.821-1.603-8.216.196-9.816 4.018-1.602 3.82.197 8.215 4.018 9.816l31.703 13.288c.928.389 1.913.583 2.899.583.965 0 1.931-.187 2.841-.559 1.841-.754 3.308-2.208 4.076-4.042l13.287-31.704c1.602-3.82-.198-8.216-4.018-9.816-3.819-1.604-8.215.197-9.816 4.018l-6.889 16.439c-16.12-41.172-20.488-85.594-13.123-128.534l97.384 46.714c1.817.872 3.938.965 5.831.278.148-.055 14.932-5.298 24.994 1.354 10.973 9.788 24.247 13.943 36.61 13.943 6.32 0 12.408-1.016 18.115-2.974h31.96c22.771 0 34.816 14.082 35.288 14.645 1.425 1.748 3.56 2.762 5.813 2.762h107.193c3.199 0 6.186 1.269 8.408 3.571 2.221 2.302 3.381 5.336 3.267 8.544-.221 6.203-5.664 11.25-12.135 11.25h-144.466c-2.142 0-4.181.915-5.604 2.515-1.423 1.601-2.095 3.732-1.846 5.858.028.236 2.798 23.917 5.327 49.912.377 3.876 3.641 6.774 7.456 6.774.243 0 .488-.013.735-.036 4.122-.401 7.14-4.068 6.738-8.191-1.632-16.771-3.363-32.585-4.402-41.832h136.062c14.698 0 26.613-11.296 27.125-25.717.261-7.312-2.39-14.235-7.463-19.493-5.075-5.26-11.894-8.157-19.202-8.157zm-380.604-44.162-9.506-4.561c-5.834-2.798-8.559-9.702-6.075-15.391 1.285-2.942 3.644-5.177 6.642-6.291 3.002-1.114 6.241-.968 9.125.417l3.186 1.528c-1.521 8.055-2.633 16.164-3.372 24.298zm136.576-36.348c0-31.222 19.629-54.767 45.659-54.767s45.659 23.545 45.659 54.767c0 48.945-21.79 66.078-45.659 66.078s-45.659-17.134-45.659-66.078z"></path><path d="m177.004 430.869c.669 3.612 3.821 6.136 7.366 6.136.453 0 .913-.041 1.374-.126 4.073-.755 6.764-4.668 6.01-8.74-5.659-30.56-12.405-76.409-12.405-121.29 0-28.067 9.452-109.019 9.548-109.833.189-1.616-.152-3.25-.973-4.655l-12.897-22.086c2.317-1.627 4.771-3.08 7.355-4.329l9.027-4.365c3.729-1.803 5.291-6.288 3.487-10.017-1.802-3.729-6.287-5.291-10.017-3.487l-9.027 4.365c-4.153 2.007-8.047 4.419-11.656 7.179l-73.812-35.407c-3.736-1.788-8.216-.217-10.006 3.519-1.792 3.735-.217 8.215 3.518 10.006l68.852 33.029c-2.198 2.723-4.198 5.624-5.97 8.694l-63.56 110.089c-3.653 6.328-4.555 13.683-2.538 20.707 2.016 7.022 6.686 12.779 13.149 16.21 3.951 2.099 8.19 3.097 12.378 3.097 9.32 0 18.387-4.947 23.456-13.729l38.637-66.92c-2.09 21.844-3.952 44.954-3.952 57.936.001 46.015 6.883 92.84 12.656 124.017zm-60.33-122.535c-3.236 5.604-10.33 7.791-15.811 4.884-2.835-1.506-4.883-4.027-5.765-7.102-.884-3.076-.489-6.297 1.11-9.067l63.56-110.089c1.228-2.127 2.6-4.148 4.092-6.062l9.849 16.866c-.333 2.894-.92 8.042-1.642 14.626z"></path><path d="m424.194 450.583c-2.93-2.928-7.678-2.928-10.607 0-2.929 2.93-2.929 7.678 0 10.607l11.503 11.503h-39.683l-79.984-167.564c-.083-7.279-.673-17.845-1.757-31.452-.329-4.129-3.937-7.199-8.072-6.881-4.129.329-7.21 3.943-6.881 8.072 1.142 14.324 1.72 25.084 1.72 31.98 0 1.118.25 2.222.731 3.23l77.621 162.614h-25.928l-88.024-130.738c-3.708-5.508-10.47-7.907-16.822-5.968s-10.62 7.705-10.62 14.347v146.667h-38.827c-1.35 0-1.983-.871-2.24-1.391-.258-.519-.567-1.55.25-2.624l12.773-16.782c1.39-1.825 1.867-4.187 1.296-6.409-.012-.047-1.23-4.805-3.053-12.973-.902-4.043-4.911-6.583-8.953-5.688-4.043.902-6.589 4.91-5.688 8.953.951 4.265 1.737 7.604 2.288 9.888l-10.6 13.926c-4.057 5.33-4.729 12.368-1.755 18.37 2.974 6.001 8.982 9.729 15.681 9.729h46.327c4.143 0 7.5-3.357 7.5-7.5v-154.165s0 0 0-.001l82.383 122.36h-41.777l11.504-11.503c2.929-2.93 2.929-7.678 0-10.607-2.93-2.928-7.678-2.928-10.607 0l-24.307 24.307c-2.929 2.93-2.929 7.678 0 10.607l24.307 24.307c1.465 1.464 3.385 2.196 5.304 2.196s3.839-.732 5.304-2.196c2.929-2.93 2.929-7.678 0-10.607l-11.503-11.503h51.877l8.68 12.893c8.526 12.662 23.143 13.485 33.174 7.756 7.062-4.033 12.473-11.674 12.771-20.648h35.591l-11.503 11.503c-2.929 2.93-2.929 7.678 0 10.607 1.465 1.464 3.385 2.196 5.304 2.196s3.839-.732 5.304-2.196l24.307-24.307c2.929-2.93 2.929-7.678 0-10.607zm-54.905 44.733c-1.351.771-8.341 4.244-13.291-3.107l-3.04-4.516h21.563c-.346 4.544-4.227 7.049-5.232 7.623z"></path><path d="m434.388 75.532c-2.93-2.928-7.678-2.928-10.607 0-2.929 2.93-2.929 7.678 0 10.607l11.503 11.503h-71.405c-4.143 0-7.5 3.357-7.5 7.5s3.357 7.5 7.5 7.5h71.406l-11.504 11.505c-2.929 2.929-2.929 7.678.001 10.606 1.464 1.464 3.384 2.196 5.303 2.196s3.839-.732 5.304-2.197l24.307-24.308c2.929-2.929 2.929-7.677 0-10.606z"></path><path d="m483.391 45.764c-4.143 0-7.5 3.357-7.5 7.5v221.009c0 4.143 3.357 7.5 7.5 7.5s7.5-3.357 7.5-7.5v-221.009c0-4.143-3.357-7.5-7.5-7.5z"></path></g></svg>