<svg xmlns="http://www.w3.org/2000/svg" id="Capa_1" height="512" viewBox="0 0 510.152 510.152" width="512"><g><path d="m484.374 247.228c-15.301-17.432-35.916-29.209-58.501-33.528-3.634-14.573-10.472-28.334-19.949-40.071l-11.67 9.424c9.054 11.212 15.291 24.58 18.038 38.657l1.026 5.256 5.304.736c43.63 6.055 76.53 43.891 76.53 88.009 0 23.291-9.263 44.668-26.082 60.191-16.628 15.348-39.117 23.8-63.324 23.8-18.003 0-265.39.542-292.712.542-54.056-.001-98.034-43.978-98.034-98.035l.003-.609-15-.131-.003.74c0 62.327 50.707 113.034 113.034 113.034 27.339 0 274.726-.542 292.712-.542 27.988 0 54.091-9.864 73.498-27.777 19.932-18.396 30.908-43.688 30.908-71.214 0-25.225-9.154-49.546-25.778-68.482z"></path><path d="m102.956 204.688 5.842-.596.823-5.813c3.442-24.31 15.568-46.653 34.145-62.915 18.748-16.414 42.813-25.454 67.764-25.454 28.701 0 55.412 11.638 74.811 32.252-12.201 4.76-30.658 15.042-38.227 35.289l14.051 5.252c6.571-17.576 25.635-25.446 34.314-28.193l.01.013 4.886-1.349c7.695-2.125 15.671-3.202 23.708-3.202 21.944 0 43.014 8.064 59.327 22.708l10.02-11.162c-19.07-17.118-43.698-26.546-69.347-26.546-7.705 0-15.367.849-22.841 2.527-22.504-27.129-55.289-42.589-90.712-42.589-28.586 0-56.16 10.358-77.645 29.168-19.823 17.354-33.235 40.766-38.168 66.418-48.627 7.459-87.069 45.682-94.454 94.767l14.834 2.232c6.651-44.218 42.37-78.268 86.859-82.807z"></path><path d="m324.258 285.112c-15.795 22.568-22.704 29.965-22.758 30.022l-2.06 2.161-.046 12.667 46.482.122.039-15-24.94-.065c3.802-4.915 8.94-11.832 15.571-21.306 4.198-5.998 6.936-11.667 8.138-16.851l.518-3.754v-.478c0-13.393-10.896-24.288-24.288-24.288-11.581 0-21.604 8.238-23.832 19.589l14.719 2.891c.851-4.334 4.684-7.479 9.113-7.479 4.984 0 9.065 3.947 9.279 8.88l-.203 1.587c-.816 3.233-2.744 7.033-5.732 11.302z"></path><path d="m213.639 206.038c-34.674 0-62.883 28.209-62.883 62.883s28.209 62.883 62.883 62.883 62.883-28.209 62.883-62.883-28.21-62.883-62.883-62.883zm0 110.766c-26.402 0-47.883-21.48-47.883-47.883s21.48-47.883 47.883-47.883 47.883 21.48 47.883 47.883-21.481 47.883-47.883 47.883z"></path><path d="m82.817 376.32c-5.096-2.085-9.995-4.711-14.563-7.806l8.414-12.418c3.711 2.515 7.691 4.647 11.829 6.341zm-27.21-18.415c-3.836-3.955-7.275-8.316-10.221-12.963l12.668-8.031c2.397 3.781 5.196 7.331 8.32 10.551zm-17.577-27.759c-1.929-5.162-3.322-10.546-4.143-16.004l14.834-2.229c.665 4.428 1.796 8.796 3.359 12.982z"></path></g></svg>