<svg xmlns="http://www.w3.org/2000/svg" id="Capa_1" height="512" viewBox="0 0 512 512" width="512"><g><path d="m502.135 101.217c.991-4.021-1.465-8.086-5.486-9.078-4.024-.989-8.086 1.465-9.078 5.486-2.952 11.974-6.73 23.871-11.229 35.363-14.112 36.046-20.997 73.947-20.463 112.652l.771 55.862c.315 22.913 4.036 45.592 11.057 67.406 1.023 3.18 3.969 5.204 7.138 5.204.762 0 1.536-.117 2.3-.362 3.943-1.27 6.11-5.494 4.842-9.438-6.564-20.394-10.042-41.596-10.338-63.018l-.771-55.862c-.507-36.755 6.031-72.747 19.432-106.977 4.736-12.1 8.714-24.63 11.825-37.238z"></path><path d="m501.344 407.493c-2.283-3.884-4.473-7.892-6.508-11.911-1.871-3.695-6.385-5.176-10.079-3.304-3.695 1.871-5.175 6.384-3.304 10.079 2.179 4.303 4.521 8.588 6.961 12.738 4.906 8.344 7.499 17.871 7.499 27.551 0 29.971-24.383 54.354-54.354 54.354h-31.993c-3.423 0-6.864-.326-10.228-.971l-20.859-3.997c-36.576-7.007-74.002-10.56-111.239-10.56-23.855 0-47.384 3.945-69.934 11.727-7.309 2.522-14.936 3.801-22.602 3.801l-36.904-.329c-7.92-.069-15.882-.86-23.664-2.349-12.312-2.355-24.895-3.128-37.404-2.3l-21.081 1.398c-10.357.685-20.234-2.841-27.813-9.934-7.578-7.093-11.752-16.715-11.752-27.094v-11.633c0-4.741 3.857-8.599 8.599-8.599h33.366c13.335 0 26.745-1.216 39.856-3.614 4.075-.746 6.773-4.653 6.028-8.728s-4.654-6.775-8.727-6.028c-12.224 2.236-24.725 3.37-37.157 3.37h-33.365c-13.012 0-23.599 10.586-23.599 23.599v11.633c0 14.363 6.015 28.23 16.502 38.045 10.487 9.814 24.718 14.89 39.055 13.949l21.081-1.398c11.232-.745 22.535-.05 33.592 2.065 8.665 1.658 17.53 2.538 26.349 2.616l36.971.331c9.402 0 18.675-1.555 27.562-4.621 20.973-7.237 42.856-10.906 65.042-10.906 36.292 0 72.768 3.463 108.416 10.292l20.86 3.997c4.292.821 8.682 1.238 13.049 1.238h31.993c38.241 0 69.354-31.112 69.354-69.354 0-12.351-3.309-24.507-9.569-35.153z"></path><path d="m130.508 423.526c23.548-7.126 50.516-17.71 71.592-31.496l44.851-28.912c40.826-26.318 65.199-71.029 65.199-119.618l-.49-225.994c-.002-.903.457-1.498.73-1.771.273-.274.867-.734 1.77-.734h179.139c1.379 0 2.5 1.121 2.5 2.5v12.411c0 11.363-.695 22.843-2.066 34.121-.5 4.112 2.429 7.851 6.54 8.351 4.106.495 7.851-2.427 8.351-6.54 1.443-11.877 2.176-23.966 2.176-35.932v-12.412c0-9.649-7.851-17.5-17.5-17.5h-179.14c-4.682 0-9.081 1.825-12.388 5.139s-5.122 7.717-5.112 12.399l.489 225.979c0 43.452-21.804 83.45-58.326 106.994l-44.851 28.912c-18.945 12.873-44.662 21.93-66.007 29.545-3.897 1.404-5.918 5.701-4.515 9.598 1.103 3.057 3.985 4.96 7.058 4.96z"></path><path d="m365 410.959c1.443.28 2.881.415 4.3.415 10.55 0 19.993-7.475 22.08-18.208 2.367-12.179-5.614-24.013-17.793-26.381-5.902-1.146-11.894.073-16.876 3.434s-8.357 8.46-9.505 14.36c-2.366 12.178 5.615 24.012 17.794 26.38zm-3.069-23.518c.382-1.967 1.508-3.667 3.169-4.787 1.19-.448 1.842-1.502 5.624-1.145 4.061.789 6.721 4.734 5.932 8.793-.789 4.06-4.739 6.721-8.793 5.932-4.06-.789-6.721-4.734-5.932-8.793z"></path><path d="m386.94 437.466c.979 0 1.974-.193 2.932-.601 16.093-6.845 27.689-21.167 31.022-38.313 3.226-16.598-1.796-33.846-13.432-46.138-2.848-3.008-7.595-3.139-10.603-.29-3.008 2.847-3.138 7.594-.29 10.603 8.315 8.784 11.904 21.107 9.6 32.964-2.381 12.247-10.668 22.479-22.169 27.372-3.812 1.621-5.587 6.025-3.966 9.837 1.215 2.853 3.988 4.566 6.906 4.566z"></path><path d="m353.187 354.697c3.735-1.789 5.313-6.269 3.523-10.004-1.79-3.736-6.271-5.313-10.004-3.523-14.93 7.152-25.728 21.114-28.883 37.346-3.274 16.844 1.911 34.263 13.869 46.597 1.471 1.518 3.427 2.279 5.386 2.279 1.88 0 3.763-.703 5.22-2.115 2.974-2.884 3.047-7.632.164-10.605-8.547-8.815-12.253-21.261-9.914-33.292 2.287-11.77 9.81-21.494 20.639-26.683z"></path><path d="m398.702 464.861c.979 0 1.974-.193 2.932-.601 25.29-10.757 43.516-33.266 48.753-60.209 5.069-26.081-2.821-53.186-21.107-72.505-2.85-3.01-7.597-3.139-10.603-.292-3.009 2.848-3.139 7.595-.292 10.603 14.967 15.813 21.426 37.992 17.277 59.332-4.285 22.046-19.201 40.464-39.899 49.269-3.812 1.621-5.587 6.025-3.966 9.837 1.214 2.853 3.987 4.566 6.905 4.566z"></path><path d="m288.418 372.567c-5.145 26.469 3.004 53.843 21.799 73.224 1.471 1.518 3.426 2.279 5.385 2.279 1.88 0 3.764-.703 5.22-2.116 2.974-2.883 3.047-7.631.163-10.604-15.382-15.863-22.052-38.263-17.842-59.92 4.118-21.183 17.657-38.688 37.147-48.025 3.735-1.79 5.313-6.269 3.522-10.005-1.79-3.735-6.27-5.312-10.005-3.522-23.461 11.241-40.43 33.181-45.389 58.689z"></path><path d="m352.97 223.185c1.206-3.963-1.027-8.153-4.99-9.359-3.963-1.204-8.153 1.027-9.359 4.99l-5.674 18.636c-.016.052-.03.103-.045.154-1.477 5.251-.534 10.668 2.586 14.862 3.022 4.063 7.783 6.445 13.062 6.538l29.325.512-7.455 45.192c-1.116 6.766 2.756 13.363 9.206 15.688 1.564.563 3.178.833 4.771.833 5.143 0 10.093-2.802 12.608-7.541l37.5-70.634c.062-.115.12-.231.175-.351 2.301-4.94 1.948-10.697-.943-15.4-3.013-4.901-8.233-7.939-13.93-8.125l-18.36-.688 16.917-43.615c.096-.246.179-.497.247-.752 1.114-4.115.284-8.43-2.277-11.838s-6.474-5.405-10.737-5.48l-37.568-.656c-6.367-.074-11.971 4.351-13.644 10.882l-5.643 18.533c-1.206 3.963 1.028 8.153 4.99 9.359 3.965 1.207 8.153-1.027 9.359-4.99l5.699-18.72c.005-.016.01-.031.015-.049l34.675.606-19.033 49.07c-1.058 2.725-.729 5.81.877 8.252 1.605 2.442 4.309 3.966 7.229 4.075l26.73 1.001c1.011.033 1.538.766 1.676.989.32.521.249.895.172 1.1l-35.133 66.176 7.796-47.262c.43-2.601-.291-5.253-1.978-7.277s-4.166-3.212-6.801-3.258l-36.204-.632c-.933-.017-1.2-.376-1.288-.494-.311-.417-.383-1.084-.196-1.792z"></path></g></svg>