<svg xmlns="http://www.w3.org/2000/svg" id="Capa_1" height="512" viewBox="0 0 511.99 511.99" width="512"><g><path d="m72.87 437.632c-3.228-2.593-7.949-2.075-10.543 1.154-9.771 12.173-16.359 26.831-19.049 42.365l-3.896 22.047c-.721 4.079 2.002 7.971 6.08 8.691 3.175.57 7.39-1.353 8.691-6.08l3.9-22.073c2.262-13.065 7.784-25.362 15.971-35.562 2.593-3.229 2.076-7.949-1.154-10.542z"></path><path d="m472.607 503.192-3.911-22.015c-6.03-34.828-30.75-62.795-64.515-72.987-21.369-6.445-43.425-10.112-65.696-10.933v-20.764c0-4.143-3.357-7.5-7.5-7.5s-7.5 3.357-7.5 7.5v20.586h-135v-80.378c0-4.483-1.681-8.733-4.733-11.965-6.863-7.271-13.554-15.419-19.884-24.222-14.257-19.827-18.309-33.539-19.481-58.23 2.945 4.59 5.648 9.284 8.088 14.081 19.971 39.053 59.633 63.313 103.51 63.313s83.539-24.26 103.496-63.287l5.399-10.459c.878-1.7 1.776-3.368 2.687-5.015-1.264 26.756-5.582 39.87-19.769 59.598-6.247 8.688-12.843 16.737-19.602 23.926-3.039 3.23-4.712 7.472-4.712 11.941v24.877c0 4.143 3.357 7.5 7.5 7.5s7.5-3.357 7.5-7.5v-24.877c0-.636.227-1.227.639-1.665 7.208-7.666 14.224-16.227 20.853-25.444 6.2-8.623 10.731-16.336 14.054-24.11 25.253-1.088 45.465-22.016 45.465-47.595 0-15.686-9.896-29.095-23.757-34.295 19.923-23.213 21.361-69.873 2.937-110.639-1.706-3.775-6.151-5.45-9.923-3.745-3.774 1.705-5.451 6.148-3.746 9.923 16.139 35.709 15.147 78.953-2.209 96.398-11.878 11.939-22.391 26.689-31.244 43.841l-5.413 10.484c-17.393 34.014-51.938 55.143-90.154 55.143s-72.762-21.129-90.147-55.128c-9.949-19.56-23.767-37.57-41.066-53.531-10.762-9.93-16.393-32.562-16.393-49.786 0-27.022 7.888-49.134 22.812-63.943 10.88-11.011 27.128-17.782 42.885-17.601 6.708.052 12.779 1.467 18.561 4.326 2.957 1.461 6.522.821 8.784-1.58 27.383-29.069 71.095-39.418 116.933-27.688 19.19 4.911 35.693 15.354 49.053 31.035 2.686 3.154 7.42 3.533 10.572.846 3.153-2.686 3.532-7.419.846-10.572-15.407-18.087-34.501-30.146-56.752-35.84-49.203-12.593-96.538-2.061-127.83 28.148-6.328-2.413-12.935-3.619-20.051-3.675-20.15-.138-39.147 7.643-53.566 21.953-12.429 12.335-27.245 35.288-27.245 74.591 0 19.494 5.926 44.608 19.083 58.67-11.932 6.078-20.083 18.529-20.083 32.665 0 25.502 20.09 46.386 45.236 47.589 3.291 7.717 7.82 15.416 14.076 24.116 6.718 9.342 13.835 18.009 21.155 25.762.412.437.64 1.028.64 1.667v80.556c-27.796 1.731-55.39 5.014-81.672 17.479-3.656 1.947-5.041 6.49-3.094 10.146s6.489 5.041 10.145 3.095c24.374-11.528 57.189-15.604 84.254-15.897h145.734c24.07 0 47.957 3.523 70.996 10.472 28.294 8.541 49.012 31.986 54.073 61.218l3.916 22.047c.491 2.84 4.116 6.864 8.696 6.073 4.075-.727 6.794-4.62 6.07-8.699zm-89.591-307.358c12.135.654 21.479 10.254 21.479 21.734 0 15.523-10.854 28.542-25.343 31.835 3.19-13.83 3.77-31.305 3.864-53.569zm-275.638 21.733c0-10.187 7.16-18.874 16.788-21.057 1.63 1.728 3.223 3.476 4.77 5.246.128 20.19.724 34.76 3.604 47.603-14.398-3.358-25.162-16.333-25.162-31.792z"></path><path d="m233.495 345.621c0 12.406 10.094 22.5 22.5 22.5s22.5-10.094 22.5-22.5-10.094-22.5-22.5-22.5-22.5 10.094-22.5 22.5zm30 0c0 4.136-3.364 7.5-7.5 7.5s-7.5-3.364-7.5-7.5 3.364-7.5 7.5-7.5 7.5 3.364 7.5 7.5z"></path><path d="m286.374 379.309c1.386 1.114 3.046 1.656 4.696 1.656 2.193 0 4.367-.957 5.849-2.799 7.465-9.278 11.576-20.959 11.576-32.889 0-11.929-4.11-23.607-11.574-32.887-2.596-3.227-7.316-3.739-10.545-1.143-3.228 2.596-3.739 7.317-1.143 10.545 5.404 6.719 8.262 14.84 8.262 23.484 0 8.646-2.857 16.767-8.264 23.486-2.596 3.229-2.085 7.95 1.143 10.547z"></path><path d="m225.283 311.546c-3.254-2.565-7.968-2.007-10.533 1.246-7.363 9.338-11.255 20.571-11.255 32.485 0 11.916 3.894 23.151 11.259 32.49 1.479 1.877 3.676 2.855 5.894 2.855 1.626 0 3.264-.526 4.64-1.611 3.252-2.564 3.81-7.28 1.244-10.533-5.257-6.666-8.036-14.689-8.036-23.201 0-8.511 2.778-16.532 8.034-23.198 2.564-3.252 2.006-7.968-1.247-10.533z"></path><path d="m242.004 257.241c.658 7.206 6.188 12.437 13.146 12.437 4.818 0 9.263-2.774 11.887-7.421.487-.936 39.361-77.327 39.8-78.24 2.232-5.02 1.775-10.815-1.222-15.506-3.123-4.888-8.44-7.858-14.185-7.944l-18.797-.376c.206-.68 16.477-44.554 16.679-45.455 1.049-4.161.138-8.49-2.5-11.875-2.638-3.386-6.612-5.327-10.904-5.327h-38.128c-6.443 0-11.977 4.592-13.545 11.199l-4.984 17.462c-1.137 3.983 1.17 8.134 5.153 9.271 3.98 1.137 8.134-1.17 9.271-5.153.006-.028 4.939-17.292 5.073-17.778h35.437l-18.497 50.274c-1.012 2.75-.629 5.837 1.024 8.257 1.652 2.419 4.389 3.898 7.316 3.956l27.139.543c1.081.017 1.658.789 1.809 1.025.365.57.264 1.208-.02 1.654l-34.561 67.936 7.172-48.762c.385-2.613-.385-5.259-2.111-7.259-1.727-1.999-4.231-3.146-6.873-3.146h-36.744c-1.001 0-1.304-.393-1.403-.521-.344-.444-.436-1.156-.251-1.912l5.857-20.518c1.137-3.982-1.17-8.134-5.153-9.271-3.978-1.134-8.134 1.171-9.271 5.153l-5.886 20.616c-.015.052-.029.104-.043.156-1.396 5.32-.35 10.765 2.87 14.938 3.117 4.041 7.958 6.358 13.279 6.358h29.892l-7.608 51.727c-.183 1.239-.221 2.384-.118 3.502z"></path></g></svg>