<svg xmlns="http://www.w3.org/2000/svg" id="Capa_1" height="512" viewBox="0 0 512 512" width="512"><g><path d="m331.017 247.491v-45.288c0-4.155-3.367-7.522-7.522-7.522s-7.522 3.367-7.522 7.522v45.288c0 4.155 3.367 7.522 7.522 7.522 4.155-.001 7.522-3.368 7.522-7.522z"></path><path d="m125.652 336.067c-21.355-44.473-39.562-94.642-46.398-114.146-.215-.612-.054-1.114.118-1.427.173-.315.514-.723 1.152-.872 12.761-2.983 26.042 2.459 33.053 13.528l21.741 34.325c5.125 8.093 13.504 13.504 22.989 14.845 9.49 1.346 19.037-1.535 26.204-7.89 1.61-1.428 2.532-3.477 2.532-5.629v-120.64c0-4.154-3.368-7.522-7.522-7.522s-7.522 3.367-7.522 7.522v116.882c-3.443 2.096-7.525 2.955-11.587 2.382-5.11-.723-9.624-3.637-12.386-7.998l-21.741-34.325c-10.432-16.471-30.198-24.562-49.18-20.129-4.645 1.083-8.625 4.102-10.92 8.28-2.293 4.175-2.704 9.148-1.128 13.644 6.919 19.741 25.353 70.532 47.034 115.682 1.294 2.695 3.983 4.268 6.786 4.268 1.092 0 2.201-.239 3.251-.743 3.744-1.8 5.322-6.293 3.524-10.037z"></path><path d="m347.492 68.507c-6.035 0-11.677 1.708-16.474 4.661v-18.243c0-17.379-14.138-31.518-31.518-31.518-6.111 0-11.816 1.754-16.652 4.775-1.671-15.816-15.087-28.182-31.34-28.182-17.379 0-31.518 14.138-31.518 31.517v2.296c-4.797-2.953-10.439-4.661-16.474-4.661-17.379 0-31.517 14.138-31.517 31.517v57.434c0 4.155 3.368 7.522 7.522 7.522s7.522-3.367 7.522-7.522v-57.433c0-9.084 7.39-16.474 16.474-16.474s16.474 7.39 16.474 16.474v165.51c0 4.154 3.368 7.522 7.522 7.522s7.522-3.367 7.522-7.522v-194.663c0-9.084 7.39-16.474 16.474-16.474s16.474 7.39 16.474 16.474v205.318c0 4.154 3.367 7.522 7.522 7.522s7.522-3.367 7.522-7.522v-181.91c0-9.084 7.39-16.474 16.474-16.474s16.474 7.39 16.474 16.474v45.099 72.121c0 4.154 3.367 7.522 7.522 7.522s7.522-3.367 7.522-7.522v-72.121c0-9.084 7.39-16.474 16.474-16.474s16.474 7.39 16.474 16.474v168.735c-.039 1.635-.803 30.368-6.1 62.949-7.008 43.103-18.61 73.326-33.554 87.403-9.017 8.493-14.188 20.687-14.188 33.457v44.389h-125.847v-42.285c0-19.666-7.207-38.965-20.294-54.343-7.604-8.934-15.97-21.691-24.868-37.918-1.997-3.643-6.569-4.975-10.212-2.979-3.642 1.997-4.976 6.569-2.979 10.211 9.387 17.121 18.338 30.726 26.602 40.436 10.773 12.659 16.706 28.496 16.706 44.593v49.806c0 4.155 3.368 7.522 7.522 7.522h140.89c4.155 0 7.522-3.367 7.522-7.522v-51.911c0-8.641 3.448-16.844 9.46-22.507 41.396-38.994 44.278-156.095 44.38-161.061.001-.051.002-.145.002-.197v-168.778c0-17.379-14.138-31.517-31.517-31.517z"></path><path d="m72.408 126.983 12.501-6.873 26.51 39.858c3.884 6.231 14.149 2.979 13.783-4.307l-1.669-88.518c.058-5.339-6.117-9.105-10.836-6.609l-16.944 8.323-3.017-49.029c-.169-5.083-5.977-8.608-10.563-6.411l-50.188 22.313c-3.772 1.677-5.487 6.08-3.845 9.866l33.744 77.788c1.626 3.988 6.799 5.754 10.524 3.599zm-27.501-80.535 33.48-14.886 3.045 49.482c.169 5.202 6.222 8.719 10.824 6.289l16.461-8.086.96 50.936-16.07-24.161c-2.176-3.281-6.514-4.294-9.886-2.426l-11.322 6.225z"></path><path d="m484.381 53.061c-.405-2.435-1.979-4.515-4.21-5.568l-41.804-19.722c-3.729-1.758-8.175-.191-9.975 3.516l-31.133 64.089c-1.967 3.832.061 8.906 4.125 10.329l10.216 3.831-10.625 37.721c-.907 3.217.419 6.646 3.254 8.418 2.822 1.766 6.491 1.466 8.992-.765l55.611-49.584c4.089-3.434 2.924-10.571-2.043-12.527l-12.958-5.554 28.372-27.554c1.768-1.719 2.583-4.196 2.178-6.63zm-49.129 31.257c-3.837 3.518-2.564 10.398 2.278 12.309l12.464 5.342-27.554 24.568 5.514-19.576c1.06-3.762-.938-7.71-4.599-9.082l-8.956-3.358 24.274-49.97 25.258 11.915z"></path></g></svg>