<svg xmlns="http://www.w3.org/2000/svg" id="&#x421;&#x43B;&#x43E;&#x439;_1" height="512" viewBox="0 0 4000 4000" width="512"><g><path d="m1448.166 1073.003c-12.011-8.88-28.996-6.358-37.903 5.67-37.621 50.84-70.673 103.434-98.24 156.311-6.444 12.36-1.802 27.912 9.788 35.399 13.086 8.453 31.087 3.396 38.256-10.353 26.262-50.381 57.815-100.551 93.76-149.133 8.89-12.029 6.368-28.987-5.661-37.894z"></path><path d="m1275.161 1388.157c-14.286-4.515-29.472 3.51-33.934 17.778-18.29 58.511-31.359 119.376-38.89 180.912-4.184 34.183 49.528 41.535 53.794 6.582 7.125-58.3 19.507-115.948 36.809-171.339 4.462-14.276-3.493-29.471-17.779-33.933z"></path><path d="m1660.697 811.387c-51.254 45.901-93.125 86.203-131.733 126.83-23.387 24.61 14.969 62.899 39.26 37.321 37.585-39.543 78.469-78.875 128.63-123.779 11.147-9.983 12.082-27.109 2.099-38.255-9.965-11.138-27.074-12.126-38.256-2.117z"></path><path d="m1245.707 1770.792c.229-14.965-11.694-27.285-27.109-27.523-14.745 0-26.827 11.844-27.073 26.659-.194 12.346-.282 24.525-.282 36.545 0 49.322 1.676 98.521 4.974 146.247 2.37 34.302 56.497 31.503 54.041-3.737-3.21-46.483-4.833-94.431-4.833-142.51-.001-11.738.088-23.635.282-35.681z"></path><path d="m1815.02 739.919c5.902.223 12.121-1.792 17.924-6.93 65.77-58.142 109.652-102.861 125.173-146.082 5.062-14.075-2.24-29.596-16.315-34.658-14.075-5.035-29.595 2.24-34.657 16.332-12.276 34.128-60.16 79.676-110.074 123.822-19.978 17.671-3.021 46.723 17.949 47.516z"></path><path d="m2780.655 412.306c-14.957 0-27.091 12.126-27.091 27.091 0 160.421-111.962 449.992-230.874 537.729-30.036 22.179-56.951 29.146-82.279 21.341-176.48-54.526-318.179-190.775-352.589-339.044-18.837-81.203-8.378-164.936 6.279-211.958 4.462-14.286-3.51-29.472-17.796-33.934-14.286-4.471-29.472 3.527-33.917 17.796-17.496 56.069-28.608 148.657-7.337 240.336 4.268 18.405 10.124 36.506 17.003 54.339-19.079 37.22-77.495 87.696-144.45 145.502-186.886 161.365-469.331 405.219-498.186 824.637-21.518 312.738 28.361 521.256 68.433 688.803 27.92 116.724 52.03 217.54 45.892 324.678-7.249 126.231-42.4 216.517-76.405 303.822-36.897 94.783-75.065 192.803-75.065 331.663 0 165.18 47.208 261.302 49.225 265.327 15.248 30.431 64.148 7.529 48.468-24.207-.441-.882-43.511-89.774-43.511-241.121 0-128.683 34.675-217.734 71.379-312.006 35.522-91.238 72.26-185.581 79.986-320.375 6.614-115.093-18.36-219.498-47.268-340.384-41.272-172.503-88.028-368.005-67.093-672.479 27.303-396.886 299.466-631.86 479.561-787.352 59.151-51.066 106.279-92.123 135.755-129.792 43.82 78.506 112.253 147.927 196.732 199.906-52.749 32.943-135.036 98.758-144.667 193.486-4.55 44.737 30.001 115.472 77.816 213.377 67.798 138.789 152.158 311.521 149.459 462.329-3.175 177.273-32.7 525.18-50.02 716.784-1.446 15.993 11.814 30.049 27.883 29.517 13.523-.447 24.874-11.187 26.087-24.631 17.373-192.336 47.021-541.724 50.231-720.7 2.928-163.843-84.607-343.065-154.945-487.075-38.873-79.589-75.594-154.759-72.613-184.117 9.097-89.35 112.58-150.664 146.426-168.448 29.732 14.462 60.823 27.063 93.267 37.085 10.018 3.095 22.082 5.388 35.857 5.388 26.156 0 58.468-8.263 94.572-34.896 133.815-98.725 252.885-407.318 252.885-581.329.001-14.963-12.133-27.088-27.09-27.088z"></path><path d="m2235.253 2522.966c-22.929-95.286-22.1-196.04-21.059-323.594 1.146-142.634 2.593-320.137-26.968-567.969-29.402-246.844-217.452-345.87-225.459-349.962-13.299-6.817-29.631-1.561-36.457 11.755s-1.552 29.64 11.764 36.465c1.693.873 170.325 89.651 196.357 308.152 29.137 244.419 27.726 420.017 26.58 561.117-1.076 131.266-1.905 234.957 22.576 336.716 13.404 55.743 33.617 100.789 55.029 148.472 59.42 132.413 140.817 313.743 154.416 914.797.772 34.128 54.97 33.973 54.182-1.232-13.863-612-97.852-799.125-159.16-935.744-21.235-47.294-39.56-88.134-51.801-138.973z"></path><path d="m2009.23 3132.955c-51.096-160.95-50.514-245.531-49.967-327.324.494-73.654 1.005-149.821-36.439-274.853-7.302-24.428-14.621-48.617-21.906-72.71-70.056-231.755-136.231-450.653-181.119-803.657-1.887-14.842-15.468-25.31-30.301-23.449-14.833 1.887-25.345 15.442-23.458 30.292 45.469 357.501 112.28 578.507 183.023 812.494 7.267 24.049 14.568 48.186 21.87 72.569 35.099 117.254 34.64 186.083 34.146 258.952-.582 86.009-1.182 174.946 52.507 344.08 61.478 193.62 173.819 456.767 175.032 459.601 13.652 31.897 63.664 11.031 49.81-21.303-1.11-2.618-112.49-263.52-173.198-454.692z"></path><path d="m1218.351 556.994h431.565s-102.93 79.602-103.209 79.818c-27.011 20.889 5.623 64.149 33.158 42.859l165.95-128.339c6.632-5.133 10.512-13.043 10.512-21.429s-3.88-16.297-10.512-21.429l-165.95-128.347c-11.852-9.154-28.855-6.984-38.009 4.859-9.154 11.835-6.984 28.846 4.85 38l103.214 79.827h-431.57c-14.957 0-27.091 12.126-27.091 27.091s12.135 27.09 27.092 27.09z"></path></g></svg>