<svg xmlns="http://www.w3.org/2000/svg" id="Capa_1" height="512" viewBox="0 0 512.003 512.003" width="512"><g><path d="m468.402 191.107h-16.825c-8.36 0-16.15 4.498-20.331 11.738-.206.355-.38.726-.523 1.105-30.678-2.574-22.886-1.92-41.761-3.504-6.776-.569-13.558-.049-20.156 1.543-.126.03-.511.122-.925-.216-.187-.152-.498-.496-.479-1.081.163-4.885-.399-9.768-1.67-14.512l-6.883-25.691c-2.684-10.014-9.105-18.383-18.083-23.565l-.475-.274 5.465-9.466c5.464 1.547 11.118 2.329 16.88 2.329 15.186 0 27.541-12.355 27.541-27.542v-42.367c0-4.088-.553-8.143-1.645-12.053-5.347-19.149-23.001-32.677-43.085-32.677-4.25 0-8.363.596-12.26 1.708-3.225-9.627-12.329-16.582-23.028-16.582-13.387 0-24.278 10.891-24.278 24.278 0 10.69 6.944 19.788 16.557 23.021-1.12 3.911-1.721 8.039-1.721 12.304.038 7.571-.151 10.92.527 16.094.61 4.666-.314 9.292-2.675 13.381l-10.168 17.612-25.003-14.435c-3.588-2.072-8.174-.842-10.245 2.745s-.842 8.174 2.745 10.245l72.219 41.696c5.451 3.147 7.325 10.142 4.178 15.592-.834 1.445-13.938 24.141-13.102 22.692-5.001 8.663-16.118 11.641-24.779 6.64l-11.202-6.467c-3.588-2.072-8.174-.842-10.245 2.745s-.842 8.174 2.745 10.245l11.202 6.467c5.7 3.291 12.077 4.743 18.418 4.379l-21.13 36.597-56.234-32.467 32.398-69.509c2.576-5.526.267-12.048-5.057-14.862l-17.687-9.408c-2.931-1.707-5.582-3.817-7.881-6.275-7.352-7.859-20.098-6.605-25.663 2.501-2.701 4.418-6.08 8.358-10.045 11.709l-6.76 5.713-10.133-10.133 36.289-36.289c2.271-2.271 5.8-2.735 8.581-1.13l4.545 2.624c3.586 2.071 8.174.841 10.245-2.745 2.071-3.587.842-8.174-2.745-10.245l-4.545-2.624c-8.65-4.994-19.625-3.548-26.688 3.514l-83.185 83.185c-4.979 4.979-7.722 11.599-7.722 18.641s2.742 13.662 7.722 18.642l5.082 5.081c8.114 8.114 21.314 8.113 29.428 0l11.896-11.897c5.864-5.864 8.132-14.355 6.066-22.715-.183-.741.065-1.507.649-2 21.267-17.975 16.566-14.001 30.957-26.164 5.193-4.39 9.622-9.551 13.161-15.343.068-.111.273-.448.808-.502.239-.028.703-.002 1.102.425 3.337 3.568 7.188 6.624 11.442 9.081.156.09-1.015-.535 15.077 8.024-3.795 8.143-43.482 93.288-48.536 104.131-3.764 8.075-5.861 16.676-6.294 25.337l-34.95 60.536c-.942 1.63-2.617 2.677-4.482 2.799-27.158 1.784-52.525 14.67-69.985 35.874-7.352 8.93-16.178 16.587-26.195 22.371-.856.494-22.845 13.19-23.382 13.5-8.301 4.793-11.156 15.446-6.363 23.748l18.965 32.849c3.841 6.651 10.041 11.408 17.458 13.396l19.265 5.162c12.643 3.387 25.611-4.119 28.972-16.769 1.85-6.959-1.22-14.338-7.465-17.942l-16.291-9.406c-.206-.119-.359-.318-.421-.549l-.661-2.465c-.106-.395.067-.813.421-1.018 11.61-6.703 17.796-10.275 25.637-14.802 3.587-2.071 4.816-6.658 2.745-10.245s-6.658-4.816-10.245-2.745l-2.346 1.354-12.734-22.057c1.448-1.574 2.858-3.194 4.219-4.847 8.44-10.249 19.179-18.37 31.501-23.706l16.168 28.004-5.088 2.938c-3.587 2.071-4.816 6.658-2.745 10.245s6.659 4.817 10.245 2.745c14.268-8.237 7.93-4.578 29.807-17.209 9.51-5.491 18.27-12.212 26.035-19.977l28.225-28.225c4.405 2.307 9.093 4.146 13.998 5.46l37.017 9.917c-8.207 7.249-15.293 16.174-20.583 26.47-6.624 12.892-15.139 25.127-25.721 35.708l-32.3 32.3c-6.073 6.073-6.073 15.954 0 22.026l39.942 39.942c8.7 8.698 22.866 8.673 31.521-.207 4.692-4.815 5.602-12.277 2.212-18.147l-17.302-29.968c-.752-1.302-.535-2.955.529-4.018l83.262-83.262c8.435-8.435 12.38-20.055 10.823-31.882s-8.375-22.031-18.706-27.995c-24.841-14.343-14.365-8.272-46.505-26.962-2.043-1.188-2.744-3.82-1.562-5.867 12.764-22.109 24.764-42.894 36.43-63.1l4.011 14.971c2.585 9.648 11.367 16.386 21.355 16.386h15.592c4.142 0 7.5-3.358 7.5-7.5s-3.358-7.5-7.5-7.5h-15.592c-3.211 0-6.035-2.167-6.866-5.269l-7.893-29.46c16.248-28.142 14.947-25.878 15.238-26.418l5.559 20.746c.888 3.315 1.281 6.723 1.167 10.129-.36 10.78 9.568 18.878 19.915 16.377 5.035-1.214 10.21-1.612 15.383-1.177l8.819.74v14.331h-.729c-4.142 0-7.5 3.358-7.5 7.5s3.358 7.5 7.5 7.5h67.049c7.042 0 13.662-2.742 18.641-7.722 4.979-4.979 7.722-11.6 7.721-18.641v-7.186c.001-11.471-9.334-20.805-20.808-20.805zm-305.324-37.422c-4.972 4.201-7.09 10.736-5.528 17.055.794 3.213.005 6.394-2.111 8.51l-11.896 11.897c-2.266 2.264-5.95 2.265-8.215 0l-5.082-5.081c-4.43-4.43-4.43-11.639 0-16.069l36.29-36.29 9.243 9.243zm-80.149 262.616-.391-.105c-4.608-1.234-8.46-4.19-10.846-8.322l-3.806-6.592c3.219-2.131 6.341-4.446 9.348-6.934l10.93 18.931zm11.886 42.344c.388.224.58.676.467 1.1-1.228 4.622-5.969 7.372-10.593 6.131l-19.265-5.162c-3.547-.95-6.513-3.226-8.35-6.407l-18.965-32.849c-.657-1.139-.266-2.6.873-3.258l16.014-9.246 3.706 6.419c2.966 5.138 7.165 9.287 12.192 12.138-1.106 3.006-1.313 6.351-.441 9.604l.661 2.465c1.1 4.104 3.731 7.535 7.411 9.658zm93.14-107.336c-6.839 6.838-14.553 12.758-22.928 17.593l-11.728 6.771-14.598-25.285c4.377-1.006 8.834-1.661 13.326-1.956 6.875-.45 13.04-4.289 16.491-10.268l25.212-43.668c3.877 11.904 10.935 22.504 20.411 30.626zm82.604 31.085c1.221-2.376 2.571-4.689 4.039-6.926l18.997 18.997-26.234 26.234-12.9-12.899c6.014-7.77 11.414-16.289 16.098-25.406zm-31.673 47.725-2.525-2.525c5.637-5.637 6.561-6.537 8.307-8.374l12.086 12.085-6.311 6.311c-4.322-1.656-8.27-4.21-11.557-7.497zm20.996 64.541c.056.097.031.179.034.179-2.781 2.854-7.349 2.889-10.171.068l-39.942-39.942c-.224-.224-.224-.589 0-.813l15.952-15.951 2.525 2.525c3.73 3.73 8.046 6.811 12.75 9.128-1.567 4.828-1.11 10.23 1.55 14.838zm64.095-171.634c13.135 7.585 15.507 25.55 4.776 36.28l-24.552 24.552-20.11-20.111c3.431-3.472 7.476-6.847 11.93-9.798l5.163 1.383c4.008 1.071 8.114-1.306 9.186-5.304 1.072-4.001-1.303-8.114-5.304-9.186-20.003-5.359-40.029-10.724-60.399-16.182-31.764-8.51-48.223-43.658-34.3-73.531l11.241-24.117 55.096 31.809-6.284 10.884c-.75 1.298-1.33 2.649-1.749 4.026l-5.017-2.925c-3.578-2.086-8.17-.878-10.257 2.701-2.086 3.578-.877 8.17 2.701 10.257 4.678 2.717 63.192 36.555 67.879 39.262zm45.467-280.97h-4.097c-8.038 0-15.519 3.607-20.524 9.896l-1.759 2.209c-2.926-2.538-6.742-4.075-10.91-4.075-16.655 0-8.714 0-10.964 0-1.384 0-2.736.139-4.044.403 3.857-11.948 15.086-20.615 28.301-20.615 9.652 0 18.505 4.708 23.997 12.182zm-68.563-17.778c0-5.116 4.162-9.278 9.278-9.278 4.776 0 8.721 3.628 9.224 8.272-3.94 2.834-7.402 6.293-10.24 10.229-4.639-.507-8.262-4.449-8.262-9.223zm10.678 72.301c1.258-2.179 2.277-4.448 3.051-6.781 2.065.706 4.279 1.089 6.58 1.089 4.142 0 7.5-3.358 7.5-7.5s-3.358-7.5-7.5-7.5c-2.656 0-4.871-1.928-5.318-4.458-.031-.379-.057-.759-.078-1.138.098-2.873 2.484-5.204 5.396-5.204h10.964c.922 0 1.672.75 1.672 1.672 0 3.427 2.174 6.489 5.409 7.619 3.236 1.128 6.842.086 8.975-2.594l8.349-10.49c2.143-2.693 5.346-4.237 8.788-4.237h9.722c.072.845.108 1.695.108 2.548v42.368c0 6.916-5.626 12.542-12.541 12.542-12.17 0-23.488-4.634-32.063-12.665-3.023-2.831-7.77-2.676-10.601.348-2.832 3.023-2.676 7.77.348 10.601 3.521 3.298 7.37 6.147 11.504 8.52l-4.523 7.834-25.91-14.959zm162.652 122.523c0 3.035-1.182 5.888-3.328 8.034s-5 3.328-8.035 3.328h-51.321v-13.072l21.314 1.789c6.902.583 12.16-4.189 12.567-10.408 1.583-1.677 3.813-2.666 6.168-2.666h16.825c3.203 0 5.809 2.605 5.809 5.808v7.187z"></path></g></svg>