<svg xmlns="http://www.w3.org/2000/svg" id="outline" viewBox="0 0 512 512" width="512" height="512"><path d="M196.24,346.784A75.649,75.649,0,0,0,232,282.264V229.736a75.649,75.649,0,0,0-35.76-64.52A59.741,59.741,0,0,1,168,114.264V24a8,8,0,0,0-8-8H128a8,8,0,0,0-8,8V488a8,8,0,0,0,8,8h32a8,8,0,0,0,8-8V397.736A59.741,59.741,0,0,1,196.24,346.784ZM152,397.736V480H136V32h16v82.264a75.649,75.649,0,0,0,35.76,64.52A59.741,59.741,0,0,1,216,229.736v52.528a59.741,59.741,0,0,1-28.24,50.952A75.649,75.649,0,0,0,152,397.736Z"></path><path d="M384,16H352a8,8,0,0,0-8,8v95.915a49.605,49.605,0,0,1-23.448,42.306A85.788,85.788,0,0,0,280,235.388V248h16V235.388a69.882,69.882,0,0,1,33.032-59.6A65.514,65.514,0,0,0,360,119.915V32h16V480H360V387.777a65.527,65.527,0,0,0-36.422-58.932A49.618,49.618,0,0,1,296,284.223V264H280v20.223c0,.648.015,1.293.034,1.937A23.985,23.985,0,0,0,240,304v16a24,24,0,0,0,48,0v-4.2a65.689,65.689,0,0,0,28.422,27.353A49.618,49.618,0,0,1,344,387.777V488a8,8,0,0,0,8,8h32a8,8,0,0,0,8-8V24A8,8,0,0,0,384,16ZM272,320a8,8,0,0,1-16,0V304a8,8,0,0,1,16,0Z"></path><path d="M312,104a24.028,24.028,0,0,0,24-24V64a24,24,0,0,0-48,0V80A24.028,24.028,0,0,0,312,104Zm-8-40a8,8,0,0,1,16,0V80a8,8,0,0,1-16,0Z"></path><path d="M304,416a28.452,28.452,0,0,0-27.642,21.582,76.237,76.237,0,0,0,0,36.836,28.493,28.493,0,0,0,55.284,0,76.237,76.237,0,0,0,0-36.836A28.452,28.452,0,0,0,304,416Zm12.12,54.537a12.493,12.493,0,0,1-24.24,0,60.161,60.161,0,0,1,0-29.074,12.493,12.493,0,0,1,24.24,0A60.161,60.161,0,0,1,316.12,470.537Z"></path><path d="M263.914,396.407a99.51,99.51,0,0,0-1.525-14.321,32.122,32.122,0,0,0-3.521-9.907C252.067,355.225,239.146,344,224,344c-22.43,0-40,24.6-40,56s17.57,56,40,56c15.146,0,28.066-11.225,34.867-28.178a32.114,32.114,0,0,0,3.522-9.907,99.509,99.509,0,0,0,1.525-14.322c.051-1.189.086-2.384.086-3.593S263.965,397.6,263.914,396.407ZM200,400c0-21.683,10.99-40,24-40a15.064,15.064,0,0,1,7.417,2.047c-6.839,3.372-12.1,10.678-13.806,20.039-.551,3.024-.967,6.128-1.236,9.223l15.939,1.382c.226-2.6.575-5.2,1.038-7.732C234.375,379.351,237.535,376,240,376c1.37,0,2.953,1.038,4.266,2.919a58.857,58.857,0,0,1,3.67,18.386q.085,2.694,0,5.389a58.857,58.857,0,0,1-3.67,18.387C242.953,422.962,241.37,424,240,424c-2.465,0-5.625-3.351-6.648-8.959-.463-2.533-.812-5.135-1.038-7.732l-15.939,1.382c.269,3.1.685,6.2,1.236,9.223,1.709,9.361,6.967,16.667,13.806,20.039A15.064,15.064,0,0,1,224,440C210.99,440,200,421.683,200,400Z"></path><path d="M224,160c15.146,0,28.066-11.225,34.867-28.178a32.114,32.114,0,0,0,3.522-9.907,99.509,99.509,0,0,0,1.525-14.322c.051-1.188.086-2.384.086-3.593s-.035-2.405-.086-3.593a99.51,99.51,0,0,0-1.525-14.321,32.113,32.113,0,0,0-3.521-9.907C252.067,59.225,239.146,48,224,48c-22.43,0-40,24.6-40,56S201.57,160,224,160Zm9.352-71.041C234.375,83.351,237.535,80,240,80c1.37,0,2.953,1.038,4.266,2.919a58.863,58.863,0,0,1,3.67,18.386q.085,2.694,0,5.39a58.857,58.857,0,0,1-3.67,18.386C242.953,126.962,241.37,128,240,128c-2.465,0-5.625-3.351-6.648-8.96A84.6,84.6,0,0,1,233.352,88.959ZM224,64a15.064,15.064,0,0,1,7.417,2.047c-6.839,3.372-12.1,10.678-13.806,20.038a100.827,100.827,0,0,0,0,35.829c1.709,9.361,6.967,16.667,13.806,20.039A15.064,15.064,0,0,1,224,144c-13.01,0-24-18.317-24-40S210.99,64,224,64Z"></path><path d="M256,224c13.458,0,24-14.056,24-32s-10.542-32-24-32-24,14.056-24,32S242.542,224,256,224Zm0-48c3.262,0,8,6.233,8,16s-4.738,16-8,16-8-6.233-8-16S252.738,176,256,176Z"></path></svg>