<svg xmlns="http://www.w3.org/2000/svg" id="Capa_1" height="512" viewBox="0 0 512.008 512.008" width="512"><g><path d="m405.584 312.303 11.793-312.303h-193.764l20.15 293.275c1.177 17.124-5.109 33.906-17.246 46.043l-48.47 48.47c-19.394 19.394-45.179 30.074-72.606 30.074h-28.677c-25.953 0-47.068 21.115-47.068 47.068-.56 24.495 21.385 47.611 47.066 47.068l71.746-.001c42.867 0 86.331-7.416 123.208-14.679 27.204-4.896 41.36.959 55.056 6.619 9.564 3.953 19.456 8.041 32.01 8.041 36.846 0 66.827-29.958 66.871-66.794.216-22.857-3.647-47.275-10.865-68.727-6.913-20.734-10.009-42.324-9.204-64.154zm-9.932 132.804c0 20.331-16.54 36.872-36.871 36.872-6.599 0-12.756-2.545-20.552-5.767-15.204-6.284-36.028-14.891-71.961-8.396l-.231.044c-35.483 6.99-77.194 14.137-117.529 14.137l-71.747.001c-7.958.048-17.078-6.878-17.065-17.068 0-9.411 7.657-17.068 17.068-17.068h28.676c35.44 0 68.759-13.801 93.819-38.861l48.47-48.47c18.271-18.271 27.734-43.534 25.963-69.312l-17.947-261.219h130.478l-10.618 281.184c-.938 25.449 2.669 50.604 10.735 74.802 6.197 18.419 9.505 39.363 9.313 58.976z"></path><path d="m175.413 244.966-16.542 33.224 19.871 39.912 26.855-13.372-13.213-26.54 16.542-33.224-16.542-33.221 16.542-33.222-16.542-33.219 13.213-26.533-26.855-13.374-19.871 39.907 16.542 33.219-16.542 33.222z"></path><path d="m465.78 252.898 16.542-33.219-19.871-39.907-26.855 13.374 13.213 26.533-16.542 33.219 16.542 33.222-16.542 33.221 16.543 33.224-13.214 26.54 26.855 13.372 19.87-39.912-16.541-33.224 16.542-33.221z"></path></g></svg>