<svg xmlns="http://www.w3.org/2000/svg" id="Capa_1" height="512" viewBox="0 0 512.002 512.002" width="512"><g><path d="m408.933 465.998c-5.65-4.988-13.179-7.314-20.661-6.378l-25.563 3.195c-9.007 1.124-18.153-1.591-25.086-7.458l-76.6-64.815c-7.331-6.203-11.535-15.268-11.535-24.872v-181.813c0-4.142-3.358-7.5-7.5-7.5s-7.5 3.358-7.5 7.5v181.813c0 14.024 6.14 27.263 16.846 36.322l76.6 64.815c10.124 8.565 23.474 12.536 36.636 10.891l25.564-3.195c3.259-.406 6.411.566 8.874 2.74s3.819 5.181 3.819 8.466c0 6.227-5.066 11.292-11.293 11.292h-216.417c-13.51 0-25.672-6.369-33.368-17.473s-9.388-24.728-4.644-37.378l9.191-24.511c10.033-26.755 11.876-55.598 5.333-83.412l-30.787-130.844 14.192-14.191 33.207 141.126c7.32 31.12 5.256 63.386-5.969 93.312l-9.185 24.507c-2.756 7.343-1.775 15.244 2.688 21.671 4.461 6.437 11.511 10.128 19.343 10.128h18.772c4.142 0 7.5-3.358 7.5-7.5s-3.358-7.5-7.5-7.5h-18.772c-2.965 0-5.326-1.236-7.019-3.678-1.687-2.43-2.013-5.071-.969-7.854l9.185-24.508c12.272-32.715 14.529-67.99 6.526-102.013l-34.334-145.919c-5.507-23.405-7.87-47.295-7.127-71.076l53.848 53.848c4.64 4.64 7.195 10.808 7.195 17.37v15.677l-21.852 21.852c-2.929 2.929-2.929 7.677 0 10.606 1.464 1.465 3.384 2.197 5.303 2.197s3.839-.732 5.303-2.197l11.245-11.245v29.99c0 4.142 3.358 7.5 7.5 7.5s7.5-3.358 7.5-7.5v-66.88c0-10.568-4.115-20.503-11.588-27.976l-9.87-9.87h38.523v8.532c0 4.142 3.358 7.5 7.5 7.5s7.5-3.358 7.5-7.5v-144.29c0-4.142-3.358-7.5-7.5-7.5s-7.5 3.358-7.5 7.5v120.758h-53.523l-38.234-38.234c1.228-11.739 3.211-23.411 5.962-34.943h30.541c6.286 0 12.195-2.448 16.64-6.892l19.353-19.353c2.929-2.929 2.929-7.678 0-10.607-2.928-2.929-7.677-2.929-10.606 0l-19.354 19.353c-1.611 1.611-3.753 2.499-6.033 2.499h-26.502c.793-2.647 1.619-5.286 2.494-7.914l8.062-22.097c1.419-3.891-.584-8.197-4.475-9.616-3.89-1.418-8.197.584-9.617 4.475l-8.099 22.198c-.024.066-.047.133-.069.199-15.541 46.63-18.864 96.298-9.786 144.443l-14.425 14.425c-12.412-54.479-9.654-111.228 8.025-164.264l4.019-12.057c1.31-3.929-.814-8.177-4.744-9.487s-8.176.814-9.487 4.743l-4.019 12.057c-18.788 56.363-21.526 116.723-7.918 174.555l34.334 145.92c5.862 24.912 4.21 50.746-4.776 74.71l-9.191 24.511c-6.401 17.069-4.023 36.205 6.36 51.188 10.384 14.983 27.467 23.929 45.697 23.929h216.416c14.498 0 26.293-11.795 26.293-26.293.001-7.537-3.24-14.722-8.892-19.71z"></path></g></svg>